<?xml version="1.0" encoding="UTF-8"?>
<!-- Generator: Adobe Illustrator 25.2.1, SVG Export Plug-In . SVG Version: 6.00 Build 0)  -->
<svg xmlns="http://www.w3.org/2000/svg" xmlns:xlink="http://www.w3.org/1999/xlink" version="1.1" id="Capa_1" x="0px" y="0px" viewBox="0 0 512 512" style="enable-background:new 0 0 512 512;" xml:space="preserve" width="512" height="512">
<g>
	<path style="fill:#FFFFFF;" d="M109.118,431.844c-11.614,0-21.062-9.441-21.079-21.051c-0.101-0.047-0.203-0.095-0.304-0.142   c-16.851-7.888-34.616-16.543-50.405-27.927c-0.291-0.194-0.574-0.4-0.848-0.618c-0.224-0.167-0.407-0.304-0.578-0.435   c-10.088-7.424-18.337-15.272-25.195-23.973c-0.008-0.009-0.015-0.019-0.023-0.028c-0.194-0.226-0.386-0.463-0.574-0.702   c-0.133-0.156-0.226-0.274-0.351-0.437c-0.715-0.932-1.425-1.888-2.113-2.838c-3.371-4.724-7.234-11.077-7.618-18.926   c-0.5-10.348,5.602-19.581,14.552-22.655c-0.85-2.23-1.676-4.487-2.463-6.764c-0.152-0.387-0.287-0.779-0.41-1.172   c-3.538-10.332-5.826-19.711-6.991-28.664c-0.046-0.363-0.082-0.691-0.108-1.004c-0.427-3.347-0.688-6.76-0.779-10.152   c-0.131-4.795,0.013-11.991,2.765-18.983c2.432-6.182,6.645-11.374,11.874-14.633c4.037-2.559,8.905-3.951,13.767-3.936   c1.974,0,3.948,0.207,5.927,0.623V102.71c0-7.162,5.807-12.969,12.969-12.969h9.068c5.581-6.043,13.474-9.585,21.976-9.585   c8.376,0,16.317,3.595,21.913,9.585h139.663c5.581-6.043,13.474-9.585,21.976-9.585c8.376,0,16.317,3.595,21.913,9.585h35.287   c7.162,0,12.969,5.807,12.969,12.969v40.845c0.387-0.021,0.775-0.031,1.165-0.031h124.902c12.412,0,22.51,10.61,22.51,23.651v16.97   c0,13.041-10.099,23.651-22.51,23.651h-11.103c0.426,1.669,0.652,3.415,0.652,5.215v20.563c1.205-1.08,2.425-2.131,3.658-3.156   c8.482-7.069,16.532-10.514,24.591-10.514c2.721,0,5.398,0.415,7.956,1.232c1.535,0.484,3.059,1.138,4.496,1.936   c0.593,0.309,1.053,0.599,1.336,0.781c5.218,3.259,9.425,8.445,11.855,14.627c2.75,6.985,2.894,14.181,2.763,18.985   c-0.091,3.362-0.351,6.771-0.777,10.133c-0.023,0.284-0.055,0.568-0.091,0.859c-1.184,9.106-3.472,18.487-7.01,28.819   c-0.122,0.393-0.258,0.785-0.409,1.174c-0.792,2.286-1.613,4.534-2.466,6.774c8.986,3.111,15.052,12.322,14.554,22.637   c-0.384,7.855-4.247,14.208-7.569,18.866c-0.737,1.016-1.446,1.974-2.162,2.905c-0.125,0.162-0.922,1.137-0.948,1.166   c-6.861,8.702-15.11,16.55-25.198,23.975c-0.158,0.121-0.316,0.239-0.475,0.358c-0.272,0.217-0.557,0.423-0.851,0.621   c-6.795,4.908-14.312,9.582-23.255,14.447v20.567c0,11.623-9.457,21.08-21.079,21.08H109.118z"/>
	<g>
		<g>
			<path style="fill:#8F8FEF;" d="M496.057,257.11c-0.081,3.088-0.323,6.165-0.726,9.23c-0.003,0.204-0.032,0.39-0.056,0.599     c-1.166,8.96-3.516,17.759-6.488,26.393c-0.051,0.191-0.123,0.387-0.2,0.561c-3.422,9.948-7.683,19.663-11.923,29.261     c3.328-2.678,6.564-3.847,10.621-5.187c1.856-0.634,3.839-1.091,5.784-0.749c4.321,0.796,7.015,5.612,6.8,10.015     c-0.215,4.403-2.618,8.381-5.172,11.96c-0.614,0.85-1.25,1.705-1.89,2.538c-0.163,0.192-0.322,0.405-0.486,0.598l-0.022,0.004     c-6.616,8.488-14.507,15.728-23.169,22.089c-0.272,0.215-0.548,0.407-0.819,0.622l-0.022,0.005     c-14.878,10.791-31.938,19.121-48.672,26.955c-4.24,1.987-8.744,4.007-13.4,3.551c-2.352-0.234-4.562-1.085-6.535-2.324     c-0.157-0.103-0.318-0.228-0.475-0.331c-1.97-1.33-3.704-3.047-5.076-4.976c-2.9-3.96-5.754-11.61-5.482-16.5     c0.728-12.37,2.576-24.678,5.562-36.725l-0.004-0.022c0.05-0.304,0.126-0.591,0.202-0.877l-0.005-0.022     c3.437-13.79,8.313-27.179,14.564-39.927c0.79-1.632,1.646-3.278,2.627-4.859c0.116-0.205,0.253-0.414,0.395-0.601     c1.758-2.737,3.9-5.146,6.729-6.637c4.657-2.48,11.661-1.157,13.355,3.844c1.641-4.496,3.543-8.821,5.733-12.957     c0.133-0.231,0.244-0.457,0.376-0.688c4.728-8.773,10.671-16.693,17.705-23.822c0.146-0.166,0.297-0.31,0.465-0.481     c2.505-2.508,5.163-4.934,7.956-7.253c5.737-4.783,13.203-9.178,20.314-6.906c0.822,0.258,1.591,0.595,2.336,1.028     c0.174,0.077,0.331,0.18,0.488,0.283c3.08,1.89,5.402,5.021,6.741,8.424C495.909,247.588,496.187,252.408,496.057,257.11z"/>
			<path style="fill:#FF899A;" d="M487.449,234.8c-8.862,12.139-17.348,24.561-25.404,37.21c-0.159,0.214-0.3,0.401-0.394,0.601     c-5.183,8.1-10.188,16.299-15.015,24.596c-0.12,0.183-0.24,0.366-0.334,0.566c-5.627,9.66-11.028,19.432-16.22,29.34     c0.005,0.022-0.012,0.048-0.03,0.074c-2.233,4.258-4.391,8.545-6.545,12.855c-0.081,0.152-0.158,0.326-0.256,0.505     c-3.82,7.704-7.51,15.494-11.052,23.344c-0.098,0.179-0.171,0.374-0.247,0.548c-4.306,9.499-8.39,19.087-12.269,28.791     c-0.157-0.103-0.318-0.228-0.475-0.331c3.858-9.586,7.913-19.101,12.171-28.499c0.055-0.17,0.149-0.37,0.247-0.548     c3.618-8.023,7.406-15.992,11.321-23.896c2.137-4.283,4.3-8.549,6.511-12.802c0.115-0.205,0.21-0.405,0.308-0.583     c5.106-9.778,10.443-19.423,16.006-28.957c0.072-0.195,0.21-0.405,0.347-0.614c4.856-8.371,9.908-16.669,15.186-24.857     c0.094-0.2,0.21-0.405,0.39-0.623c8.004-12.57,16.439-24.914,25.266-37.001C487.136,234.595,487.293,234.698,487.449,234.8z"/>
			<path style="fill:#FF899A;" d="M495.332,266.34c-0.003,0.204-0.032,0.39-0.056,0.599c-2.71,0.653-5.407,1.259-8.092,1.816     c-8.725,1.812-17.263,3.111-25.532,3.857l-0.243,0.028l-0.104-0.498c-1.962-7.926-3.791-15.97-5.416-24.011     c0.146-0.166,0.297-0.31,0.465-0.481c1.616,7.998,3.409,15.982,5.341,23.869c0.036,0.173,0.094,0.342,0.13,0.515     c0.065-0.013,0.156-0.01,0.221-0.023C472.767,271.003,483.916,269.117,495.332,266.34z"/>
			<path style="fill:#FF899A;" d="M488.787,293.332c-0.051,0.191-0.123,0.387-0.2,0.561c-13.367,2.189-27.53,3.481-42.285,3.88     c-0.091-0.004-0.178,0.014-0.269,0.011l-0.199,0.019l-0.062-0.191c-3.005-8.161-5.673-16.55-7.964-24.973     c0.133-0.231,0.244-0.457,0.376-0.688c2.296,8.444,4.964,16.833,7.934,25.047c0.04,0.082,0.053,0.147,0.093,0.229     c0.134-0.006,0.29-0.015,0.425-0.021C461.365,296.791,475.459,295.49,488.787,293.332z"/>
			<path style="fill:#FF899A;" d="M430.113,327.153l-0.06,0.035l-0.423,0.246c-0.066-0.099-0.105-0.181-0.171-0.281     c-7.162-12.086-13.168-24.909-17.862-38.162c0.116-0.205,0.253-0.414,0.395-0.601c4.63,13.266,10.63,26.068,17.775,38.18     c0.105,0.181,0.211,0.363,0.316,0.544C430.108,327.131,430.108,327.131,430.113,327.153z"/>
			<path style="fill:#FF899A;" d="M492.808,341.731c-0.163,0.192-0.322,0.405-0.486,0.598c0,0,0.004,0.022-0.022,0.004     c-22.949,2.485-46.085,1.892-69.049-1.786c-0.139-0.016-0.256-0.037-0.395-0.053l0.091-0.539c0.187,0.029,0.374,0.058,0.56,0.087     C446.541,343.728,469.759,344.281,492.808,341.731z"/>
			<path style="fill:#FF899A;" d="M469.132,364.421c-0.272,0.215-0.548,0.407-0.819,0.622l-0.022,0.005     c-19.613,2.018-39.373,0.611-56.338-0.609c-0.182-0.007-0.343-0.019-0.503-0.031l-0.07-0.008l-0.048-0.013l-0.092-0.116     c-6.418-9.372-12.116-19.3-17.027-29.572l-0.004-0.022c0.05-0.304,0.126-0.591,0.202-0.877     c4.925,10.45,10.698,20.521,17.217,30.052c0.182,0.008,0.369,0.036,0.573,0.039C429.373,365.135,449.359,366.54,469.132,364.421z     "/>
		</g>
		<g>
			<rect x="51.985" y="102.71" style="fill:#FFF5EE;" width="271.797" height="193.307"/>
			<rect x="51.985" y="102.71" style="fill:#FF899A;" width="271.797" height="36.345"/>
			<rect x="101.65" y="153.251" style="fill:#8F8FEF;" width="27.932" height="26.602"/>
			<rect x="136.232" y="153.251" style="fill:#8F8FEF;" width="27.932" height="26.602"/>
			<rect x="170.815" y="153.251" style="fill:#8F8FEF;" width="27.932" height="26.602"/>
			<rect x="205.397" y="153.251" style="fill:#8F8FEF;" width="27.932" height="26.602"/>
			<rect x="239.979" y="153.251" style="fill:#8F8FEF;" width="27.932" height="26.602"/>
			<g>
				<rect x="67.068" y="153.251" style="fill:#8F8FEF;" width="27.932" height="26.602"/>
				<rect x="101.65" y="153.251" style="fill:#8F8FEF;" width="27.932" height="26.602"/>
				<rect x="136.232" y="153.251" style="fill:#8F8FEF;" width="27.932" height="26.602"/>
				<rect x="170.815" y="153.251" style="fill:#8F8FEF;" width="27.932" height="26.602"/>
				<rect x="205.397" y="153.251" style="fill:#8F8FEF;" width="27.932" height="26.602"/>
				<rect x="239.979" y="153.251" style="fill:#FFA766;" width="27.932" height="26.602"/>
				<rect x="274.561" y="153.251" style="fill:#8F8FEF;" width="27.932" height="26.602"/>
				<rect x="67.068" y="187.389" style="fill:#8F8FEF;" width="27.932" height="26.602"/>
				<rect x="101.65" y="187.389" style="fill:#8F8FEF;" width="27.932" height="26.602"/>
				<rect x="136.232" y="187.389" style="fill:#8F8FEF;" width="27.932" height="26.602"/>
				<rect x="170.815" y="187.389" style="fill:#8F8FEF;" width="27.932" height="26.602"/>
				<rect x="205.397" y="187.389" style="fill:#8F8FEF;" width="27.932" height="26.602"/>
				<rect x="239.979" y="187.389" style="fill:#8F8FEF;" width="27.932" height="26.602"/>
				<rect x="274.561" y="187.389" style="fill:#8F8FEF;" width="27.932" height="26.602"/>
				<rect x="67.068" y="218.868" style="fill:#FFA766;" width="27.932" height="26.602"/>
				<rect x="101.65" y="218.868" style="fill:#8F8FEF;" width="27.932" height="26.602"/>
				<rect x="136.232" y="218.868" style="fill:#8F8FEF;" width="27.932" height="26.602"/>
				<rect x="170.815" y="218.868" style="fill:#8F8FEF;" width="27.932" height="26.602"/>
				<rect x="205.397" y="218.868" style="fill:#8F8FEF;" width="27.932" height="26.602"/>
				<rect x="239.979" y="218.868" style="fill:#8F8FEF;" width="27.932" height="26.602"/>
				<rect x="274.561" y="218.868" style="fill:#8F8FEF;" width="27.932" height="26.602"/>
				<rect x="67.068" y="249.903" style="fill:#8F8FEF;" width="27.932" height="26.602"/>
				<rect x="101.65" y="249.903" style="fill:#8F8FEF;" width="27.932" height="26.602"/>
				<rect x="136.232" y="249.903" style="fill:#8F8FEF;" width="27.932" height="26.602"/>
				<rect x="170.815" y="249.903" style="fill:#8F8FEF;" width="27.932" height="26.602"/>
				<rect x="205.397" y="249.903" style="fill:#8F8FEF;" width="27.932" height="26.602"/>
				<rect x="239.979" y="249.903" style="fill:#8F8FEF;" width="27.932" height="26.602"/>
				<rect x="274.561" y="249.903" style="fill:#8F8FEF;" width="27.932" height="26.602"/>
			</g>
			<path style="fill:#401A49;" d="M102.537,125.984c0,5.02-4.069,9.089-9.089,9.089c-5.02,0-9.089-4.069-9.089-9.089     c0-5.02,4.069-9.089,9.089-9.089C98.468,116.895,102.537,120.964,102.537,125.984z"/>
			<path style="fill:#401A49;" d="M286.089,125.984c0,5.02-4.069,9.089-9.089,9.089c-5.02,0-9.089-4.069-9.089-9.089     c0-5.02,4.069-9.089,9.089-9.089C282.02,116.895,286.089,120.964,286.089,125.984z"/>
			<path style="fill:#401A49;" d="M266.582,93.124c-6.581,0-12.311,3.768-15.125,9.256l1.997-0.017     c2.657-4.498,7.554-7.502,13.128-7.502c8.405,0,15.247,6.825,15.247,15.229c0,7.867-5.991,14.361-13.649,15.16     c-0.034,0.591-0.017,1.198,0,1.754c8.613-0.816,15.386-8.092,15.386-16.914C283.565,100.73,275.942,93.124,266.582,93.124z"/>
			<path style="fill:#401A49;" d="M83.03,93.124c-6.581,0-12.312,3.768-15.125,9.256l1.997-0.017     c2.657-4.498,7.554-7.502,13.128-7.502c8.405,0,15.247,6.825,15.247,15.229c0,7.867-5.991,14.361-13.649,15.16     c-0.035,0.591-0.017,1.198,0,1.754c8.613-0.816,15.385-8.092,15.385-16.914C100.013,100.73,92.39,93.124,83.03,93.124z"/>
		</g>
		<g>
			<path style="fill:#FF899A;" d="M17.649,264.013c0.081,3.089,0.323,6.165,0.726,9.23c0.003,0.204,0.032,0.391,0.056,0.599     c1.166,8.959,3.517,17.759,6.488,26.393c0.051,0.191,0.123,0.387,0.2,0.561c3.422,9.947,7.683,19.663,11.923,29.261     c-3.328-2.678-6.564-3.847-10.622-5.187c-1.856-0.634-3.839-1.091-5.784-0.749c-4.321,0.796-7.015,5.612-6.8,10.015     c0.215,4.403,2.618,8.381,5.172,11.96c0.614,0.85,1.249,1.705,1.89,2.538c0.163,0.192,0.322,0.405,0.486,0.598l0.022,0.004     c6.616,8.488,14.508,15.728,23.169,22.089c0.272,0.215,0.548,0.407,0.819,0.622l0.022,0.004     c14.878,10.791,31.938,19.122,48.672,26.956c4.24,1.987,8.744,4.006,13.401,3.551c2.352-0.234,4.561-1.086,6.535-2.324     c0.157-0.103,0.318-0.228,0.475-0.33c1.97-1.33,3.704-3.048,5.076-4.976c2.9-3.96,5.754-11.611,5.482-16.5     c-0.729-12.37-2.577-24.678-5.563-36.725l0.005-0.022c-0.05-0.304-0.126-0.591-0.202-0.878l0.005-0.022     c-3.437-13.79-8.313-27.179-14.564-39.927c-0.79-1.632-1.646-3.278-2.627-4.859c-0.116-0.205-0.253-0.414-0.395-0.601     c-1.758-2.736-3.9-5.146-6.729-6.637c-4.657-2.48-11.662-1.157-13.355,3.844c-1.641-4.496-3.543-8.821-5.733-12.957     c-0.133-0.231-0.244-0.457-0.377-0.688c-4.728-8.773-10.671-16.693-17.705-23.822c-0.146-0.166-0.297-0.31-0.465-0.48     c-2.506-2.508-5.163-4.934-7.957-7.253c-5.737-4.782-13.203-9.178-20.314-6.906c-0.822,0.258-1.592,0.595-2.336,1.028     c-0.174,0.077-0.331,0.18-0.488,0.283c-3.08,1.89-5.402,5.021-6.741,8.424C17.797,254.49,17.519,259.311,17.649,264.013z"/>
			<path style="fill:#8F8FEF;" d="M26.257,241.703c8.862,12.139,17.348,24.561,25.404,37.21c0.159,0.214,0.301,0.401,0.395,0.601     c5.183,8.1,10.188,16.299,15.015,24.596c0.12,0.183,0.24,0.366,0.334,0.566c5.627,9.66,11.029,19.432,16.22,29.34     c-0.005,0.022,0.013,0.048,0.03,0.074c2.232,4.258,4.391,8.545,6.545,12.854c0.081,0.152,0.158,0.326,0.257,0.505     c3.82,7.704,7.51,15.494,11.052,23.344c0.098,0.179,0.171,0.374,0.247,0.548c4.306,9.499,8.39,19.087,12.269,28.791     c0.157-0.103,0.318-0.228,0.475-0.33c-3.859-9.587-7.913-19.101-12.172-28.5c-0.055-0.17-0.149-0.37-0.247-0.548     c-3.618-8.024-7.407-15.992-11.321-23.896c-2.137-4.283-4.3-8.549-6.51-12.802c-0.116-0.205-0.21-0.405-0.308-0.583     c-5.106-9.778-10.443-19.423-16.006-28.957c-0.072-0.196-0.209-0.405-0.347-0.614c-4.856-8.371-9.908-16.67-15.186-24.857     c-0.094-0.2-0.209-0.405-0.39-0.623c-8.004-12.57-16.439-24.914-25.266-37C26.571,241.497,26.414,241.6,26.257,241.703z"/>
			<path style="fill:#8F8FEF;" d="M18.375,273.242c0.003,0.204,0.032,0.391,0.056,0.599c2.71,0.653,5.407,1.258,8.092,1.816     c8.725,1.812,17.263,3.111,25.532,3.857l0.243,0.028l0.104-0.498c1.962-7.926,3.791-15.97,5.416-24.012     c-0.146-0.166-0.297-0.31-0.465-0.48c-1.616,7.998-3.409,15.982-5.341,23.869c-0.036,0.173-0.093,0.342-0.13,0.515     c-0.065-0.013-0.156-0.01-0.221-0.023C40.939,277.905,29.79,276.019,18.375,273.242z"/>
			<path style="fill:#8F8FEF;" d="M24.92,300.235c0.051,0.191,0.123,0.387,0.2,0.561c13.367,2.189,27.53,3.481,42.285,3.88     c0.091-0.004,0.178,0.014,0.269,0.011l0.199,0.019l0.062-0.19c3.005-8.161,5.673-16.55,7.964-24.973     c-0.133-0.231-0.244-0.457-0.377-0.688c-2.296,8.444-4.964,16.833-7.934,25.047c-0.04,0.082-0.053,0.147-0.093,0.229     c-0.134-0.005-0.29-0.015-0.425-0.021C52.342,303.693,38.248,302.393,24.92,300.235z"/>
			<path style="fill:#8F8FEF;" d="M83.594,334.055l0.06,0.035l0.423,0.246c0.066-0.099,0.105-0.182,0.171-0.281     c7.162-12.086,13.167-24.909,17.862-38.162c-0.116-0.205-0.253-0.414-0.395-0.601c-4.63,13.267-10.63,26.068-17.775,38.18     c-0.105,0.181-0.211,0.363-0.316,0.544C83.598,334.033,83.598,334.033,83.594,334.055z"/>
			<path style="fill:#8F8FEF;" d="M20.899,348.633c0.163,0.192,0.322,0.405,0.486,0.598c0,0-0.004,0.022,0.022,0.004     c22.949,2.485,46.085,1.892,69.049-1.786c0.139-0.016,0.256-0.037,0.395-0.053l-0.091-0.538c-0.187,0.029-0.373,0.058-0.56,0.087     C67.166,350.631,43.947,351.184,20.899,348.633z"/>
			<path style="fill:#8F8FEF;" d="M44.575,371.324c0.272,0.215,0.548,0.407,0.819,0.622l0.022,0.004     c19.613,2.018,39.373,0.611,56.338-0.609c0.182-0.007,0.343-0.019,0.503-0.031l0.07-0.008l0.048-0.013l0.092-0.117     c6.418-9.372,12.116-19.3,17.027-29.572l0.005-0.022c-0.05-0.304-0.126-0.591-0.202-0.878     c-4.925,10.45-10.698,20.521-17.217,30.053c-0.182,0.007-0.369,0.036-0.573,0.039C84.333,372.037,64.348,373.443,44.575,371.324z     "/>
		</g>
		<g>
			<path style="fill:#FFE5D2;" d="M439.398,213.011v197.753c0,4.481-3.63,8.111-8.11,8.111H109.971     c-4.481,0-8.111-3.629-8.111-8.111V213.011c0-4.481,3.63-8.111,8.111-8.111h321.317     C435.769,204.9,439.398,208.53,439.398,213.011z"/>
			<path style="fill:#FFD2A7;" d="M208.169,232.172v186.703h-98.197c-4.481,0-8.111-3.629-8.111-8.111V232.172H208.169z"/>
			<path style="fill:#FFA766;" d="M439.398,213.011v21.391H101.861v-21.391c0-4.481,3.63-8.111,8.111-8.111h321.317     C435.769,204.9,439.398,208.53,439.398,213.011z"/>
			<g>
				<path style="fill:#8F8FEF;" d="M396.259,220.775c0,3.24-2.627,5.867-5.867,5.867c-3.24,0-5.867-2.627-5.867-5.867      c0-3.24,2.627-5.867,5.867-5.867C393.632,214.908,396.259,217.534,396.259,220.775z"/>
				<path style="fill:#FF899A;" d="M416.966,220.775c0,3.24-2.627,5.867-5.867,5.867c-3.24,0-5.867-2.627-5.867-5.867      c0-3.24,2.627-5.867,5.867-5.867C414.34,214.908,416.966,217.534,416.966,220.775z"/>
				<path style="fill:#FFD2A7;" d="M374.516,220.775c0,3.24-2.627,5.867-5.867,5.867c-3.24,0-5.867-2.627-5.867-5.867      c0-3.24,2.627-5.867,5.867-5.867C371.889,214.908,374.516,217.534,374.516,220.775z"/>
			</g>
			<g>
				<rect x="118.777" y="264.002" style="fill:#FF899A;" width="16.911" height="16.911"/>
				<g>
					<path style="fill:#8F8FEF;" d="M195.482,267.281h-49.008c-0.38,0-0.69-0.311-0.69-0.69l0,0c0-0.38,0.311-0.69,0.69-0.69h49.008       c0.38,0,0.69,0.311,0.69,0.69l0,0C196.172,266.97,195.861,267.281,195.482,267.281z"/>
					<path style="fill:#8F8FEF;" d="M195.482,272.975h-49.008c-0.38,0-0.69-0.311-0.69-0.69l0,0c0-0.38,0.311-0.69,0.69-0.69h49.008       c0.38,0,0.69,0.311,0.69,0.69l0,0C196.172,272.664,195.861,272.975,195.482,272.975z"/>
					<path style="fill:#8F8FEF;" d="M195.482,278.497h-49.008c-0.38,0-0.69-0.311-0.69-0.69l0,0c0-0.38,0.311-0.69,0.69-0.69h49.008       c0.38,0,0.69,0.31,0.69,0.69l0,0C196.172,278.186,195.861,278.497,195.482,278.497z"/>
				</g>
				<rect x="118.777" y="299.464" style="fill:#FF899A;" width="16.911" height="16.911"/>
				<g>
					<path style="fill:#8F8FEF;" d="M195.482,302.742h-49.008c-0.38,0-0.69-0.311-0.69-0.69l0,0c0-0.38,0.311-0.69,0.69-0.69h49.008       c0.38,0,0.69,0.311,0.69,0.69l0,0C196.172,302.432,195.861,302.742,195.482,302.742z"/>
					<path style="fill:#8F8FEF;" d="M195.482,308.437h-49.008c-0.38,0-0.69-0.31-0.69-0.69l0,0c0-0.379,0.311-0.69,0.69-0.69h49.008       c0.38,0,0.69,0.311,0.69,0.69l0,0C196.172,308.126,195.861,308.437,195.482,308.437z"/>
					<path style="fill:#8F8FEF;" d="M195.482,313.959h-49.008c-0.38,0-0.69-0.311-0.69-0.69l0,0c0-0.38,0.311-0.69,0.69-0.69h49.008       c0.38,0,0.69,0.311,0.69,0.69l0,0C196.172,313.648,195.861,313.959,195.482,313.959z"/>
				</g>
				<rect x="118.777" y="334.925" style="fill:#FF899A;" width="16.911" height="16.911"/>
				<g>
					<path style="fill:#8F8FEF;" d="M195.482,338.204h-49.008c-0.38,0-0.69-0.311-0.69-0.69l0,0c0-0.38,0.311-0.69,0.69-0.69h49.008       c0.38,0,0.69,0.311,0.69,0.69l0,0C196.172,337.893,195.861,338.204,195.482,338.204z"/>
					<path style="fill:#8F8FEF;" d="M195.482,343.899h-49.008c-0.38,0-0.69-0.311-0.69-0.69l0,0c0-0.38,0.311-0.69,0.69-0.69h49.008       c0.38,0,0.69,0.311,0.69,0.69l0,0C196.172,343.588,195.861,343.899,195.482,343.899z"/>
					<path style="fill:#8F8FEF;" d="M195.482,349.421h-49.008c-0.38,0-0.69-0.311-0.69-0.69l0,0c0-0.379,0.311-0.69,0.69-0.69       h49.008c0.38,0,0.69,0.311,0.69,0.69l0,0C196.172,349.11,195.861,349.421,195.482,349.421z"/>
				</g>
				<rect x="118.777" y="369.61" style="fill:#FF899A;" width="16.911" height="16.911"/>
				<g>
					<path style="fill:#8F8FEF;" d="M195.482,372.889h-49.008c-0.38,0-0.69-0.311-0.69-0.69l0,0c0-0.38,0.311-0.69,0.69-0.69h49.008       c0.38,0,0.69,0.311,0.69,0.69l0,0C196.172,372.578,195.861,372.889,195.482,372.889z"/>
					<path style="fill:#8F8FEF;" d="M195.482,378.584h-49.008c-0.38,0-0.69-0.311-0.69-0.69l0,0c0-0.38,0.311-0.69,0.69-0.69h49.008       c0.38,0,0.69,0.311,0.69,0.69l0,0C196.172,378.273,195.861,378.584,195.482,378.584z"/>
					<path style="fill:#8F8FEF;" d="M195.482,384.106h-49.008c-0.38,0-0.69-0.311-0.69-0.69l0,0c0-0.38,0.311-0.69,0.69-0.69h49.008       c0.38,0,0.69,0.311,0.69,0.69l0,0C196.172,383.795,195.861,384.106,195.482,384.106z"/>
				</g>
			</g>
			<g>
				<path style="fill:#FFFFFF;" d="M368.472,295.614c0-25.321-20.527-45.848-45.849-45.848c-25.321,0-45.848,20.527-45.848,45.848      c0,19.51,12.208,36.13,29.384,42.751v14.976h33.136v-15.052C356.364,331.614,368.472,315.046,368.472,295.614z"/>
				<path style="fill:#401A49;" d="M326.035,355.326c-0.018,0-0.036-0.002-0.054-0.005c-0.165-0.029-0.276-0.188-0.247-0.356      l5.476-30.631c0.365-2.037,0.786-4.101,1.194-6.095c0.693-3.374,1.407-6.865,1.858-10.333      c0.501-3.842,0.752-11.571-1.885-13.313c-0.906-0.6-2.141-0.453-3.673,0.442c-0.825,0.485-1.557,1.06-2.18,1.701      c0.854,2.916,0.911,6.446,0.17,8.292c-0.326,0.809-0.784,1.273-1.362,1.384c-0.566-0.009-0.99-0.245-1.294-0.68      c-0.961-1.375-0.594-4.434-0.043-6.067c0.376-1.115,1.004-2.161,1.837-3.086c-0.306-0.958-0.7-1.826-1.183-2.504      c-0.702-0.99-1.414-1.527-2.171-1.638c-0.594-0.093-1.244,0.07-2.068,0.505c-1.579,0.829-2.859,2.136-3.756,3.679      c0.331,0.487,0.625,1.056,0.877,1.704c0.759,1.964,1.121,4.117,1.042,6.226c-0.032,0.875-0.51,2.021-1.257,2.427      c-0.376,0.208-0.797,0.204-1.174-0.025c-0.363-0.217-0.562-0.58-0.721-0.94c-1.325-2.95-1.008-6.484,0.514-9.341      c-0.51-0.662-1.183-1.226-2.046-1.378c-1.507-0.256-2.911,0.859-3.548,2.103c-0.725,1.418-0.761,3.092-0.739,4.549      c0.084,5.748,1.169,11.505,2.218,17.074c2.125,11.292,4.325,22.962,7.184,34.356c0.034-0.016,0.073-0.023,0.113-0.023      c0.29,0,0.437,0.193,0.453,0.383c0.023,0.288-0.251,0.641-0.535,0.689c-0.19,0.016-0.412-0.061-0.485-0.344      c-2.934-11.586-5.17-23.463-7.334-34.947c-1.053-5.594-2.143-11.378-2.227-17.178c-0.025-1.532,0.016-3.294,0.806-4.837      c0.736-1.445,2.399-2.737,4.198-2.426c0.838,0.147,1.609,0.632,2.266,1.409c0.943-1.55,2.257-2.857,3.863-3.7      c0.596-0.313,1.497-0.716,2.445-0.571c0.931,0.141,1.774,0.759,2.578,1.892c0.469,0.657,0.856,1.468,1.167,2.356      c0.607-0.587,1.305-1.117,2.08-1.57c1.744-1.024,3.201-1.165,4.318-0.428c3.55,2.347,2.309,12.728,2.155,13.902      c-0.453,3.494-1.171,6.994-1.865,10.379c-0.408,1.991-0.829,4.051-1.192,6.081l-5.476,30.631      C326.309,355.222,326.18,355.326,326.035,355.326z M319.12,353.966h0.009H319.12z M316.324,297.24      c-1.309,2.642-1.55,5.841-0.344,8.525c0.12,0.267,0.26,0.535,0.478,0.664c0.19,0.118,0.374,0.125,0.566,0.014      c0.48-0.26,0.909-1.137,0.938-1.912c0.075-2.028-0.272-4.096-1.001-5.981C316.816,298.173,316.605,297.704,316.324,297.24z       M326.035,297.281c-0.652,0.788-1.149,1.661-1.459,2.581c-0.598,1.778-0.761,4.484-0.036,5.521      c0.195,0.276,0.437,0.415,0.745,0.424c0.381-0.079,0.673-0.591,0.841-1.004C326.791,303.146,326.746,299.972,326.035,297.281z"/>
				<g>
					<g>
						<path style="fill:#8F8FEF;" d="M338.931,358.186h-32.511c-1.461,0-2.657-1.196-2.657-2.657l0,0        c0-1.462,1.196-2.657,2.657-2.657h32.511c1.462,0,2.657,1.196,2.657,2.657l0,0        C341.589,356.991,340.393,358.186,338.931,358.186z"/>
						<path style="fill:#8F8FEF;" d="M338.931,363.188h-32.511c-1.461,0-2.657-1.195-2.657-2.657l0,0        c0-1.461,1.196-2.657,2.657-2.657h32.511c1.462,0,2.657,1.196,2.657,2.657l0,0        C341.589,361.992,340.393,363.188,338.931,363.188z"/>
						<path style="fill:#8F8FEF;" d="M338.931,368.502h-32.511c-1.461,0-2.657-1.196-2.657-2.657l0,0        c0-1.462,1.196-2.657,2.657-2.657h32.511c1.462,0,2.657,1.196,2.657,2.657l0,0        C341.589,367.306,340.393,368.502,338.931,368.502z"/>
						<path style="fill:#8F8FEF;" d="M333.638,373.191h-22.393c-0.504,0-0.917-0.412-0.917-0.917v-3.481        c0-0.504,0.413-0.917,0.917-0.917h22.393c0.504,0,0.917,0.412,0.917,0.917v3.481        C334.555,372.779,334.143,373.191,333.638,373.191z"/>
					</g>
					<path style="fill:#401A49;" d="M340.181,358.414H305.25c-0.17,0-0.306-0.136-0.306-0.306c0-0.17,0.136-0.306,0.306-0.306       h34.931c0.17,0,0.306,0.136,0.306,0.306C340.487,358.278,340.351,358.414,340.181,358.414z"/>
					<path style="fill:#401A49;" d="M340.181,363.65H305.25c-0.17,0-0.306-0.136-0.306-0.306s0.136-0.306,0.306-0.306h34.931       c0.17,0,0.306,0.136,0.306,0.306S340.351,363.65,340.181,363.65z"/>
					<path style="fill:#401A49;" d="M334.007,368.729h-23.288c-0.17,0-0.306-0.136-0.306-0.306s0.136-0.306,0.306-0.306h23.288       c0.17,0,0.306,0.136,0.306,0.306S334.177,368.729,334.007,368.729z"/>
				</g>
			</g>
			<g>
				<path style="fill:#8F8FEF;" d="M381.764,399.55H262.695c-5.884,0-10.699-4.814-10.699-10.699l0,0      c0-5.884,4.814-10.699,10.699-10.699h119.069c5.884,0,10.699,4.815,10.699,10.699l0,0      C392.462,394.736,387.648,399.55,381.764,399.55z"/>
				<g>
					<path style="fill:#FFFFFF;" d="M269.648,392.75c0.014-0.961,0.034-1.934,0.034-3.033c0-1.404,0-3.35-0.093-4.728       c-0.034-0.205-0.053-0.351-0.053-0.536c0-0.431,0.18-0.682,0.59-0.774c0.178-0.146,0.41-0.199,0.61-0.199       c0.424,0,0.701,0.563,0.774,0.795c1.079,1.629,4.15,5.243,5.33,6.985c0-5.674-0.133-6.29-0.133-7.004       c0-0.716,0.297-0.854,0.82-0.854c0.689,0,0.735,0.616,0.735,1.132v7.595c0,0.318,0.053,0.635,0.053,0.993       c0,0.682-0.204,0.894-0.741,0.894c-0.491,0-0.788-0.285-0.907-0.635c-1.683-2.291-3.457-4.442-5.212-6.793l-0.398-0.623       c0.02,4.058,0.062,5.277,0.062,6.435c0.006,0.232,0.039,0.503,0.039,0.748c0,0.463-0.121,0.867-0.796,0.867       c-0.449,0-0.8-0.238-0.8-0.616C269.563,393.034,269.642,392.73,269.648,392.75z"/>
					<path style="fill:#FFFFFF;" d="M281.014,392.605l0.059-0.212l-0.152-7.919c0-0.874,0.438-0.88,0.861-0.88h3.489       c0.159-0.014,0.398-0.059,0.477-0.059c0.668,0,0.8,0.238,0.8,0.715c0,0.675-0.364,0.774-0.8,0.774c-0.101,0-0.271,0-0.443-0.02       c-1.715,0-1.986,0.007-2.24,0.007h-0.616v2.099c0.172,0.007,0.339,0.007,3.279,0.007c0.099,0,0.232-0.014,0.351-0.027       c0.158-0.02,0.376-0.039,0.622-0.039c0.477,0,0.749,0.43,0.749,0.727c0,0.47-0.351,0.689-0.842,0.689l-4.158,0.006v3.966       c0.869,0,1.743,0.04,2.703,0.04c0.263,0,0.483-0.033,0.681-0.065c0.186-0.027,0.37-0.054,0.596-0.054       c0.523,0,0.935,0.146,0.935,0.669c0,0.767-0.584,0.794-1.2,0.794h-4.455c-0.449,0-0.788-0.205-0.788-0.748       C280.921,392.922,280.974,392.743,281.014,392.605z"/>
					<path style="fill:#FFFFFF;" d="M288.911,385.037c-0.113-0.292-0.226-0.616-0.226-0.887c0-0.47,0.271-0.722,0.808-0.722       c0.245,0,0.483,0.053,0.695,0.629c1.376,3.846,2.045,5.78,2.522,7.25c0.503-1.443,0.841-2.536,1.356-3.887       c-0.198-0.404-0.675-1.927-0.879-2.338c-0.16-0.284-0.293-0.595-0.293-0.821c0-0.569,0.22-0.794,0.796-0.794       c0.396,0,0.549,0.291,1.071,1.701c0.061,0.152,0.121,0.431,0.18,0.59c0.172-0.378,0.384-1.053,0.523-1.549       c0.079-0.338,0.218-0.788,0.814-0.788c0.451,0,0.734,0.318,0.734,0.788c0,0.245-0.125,0.523-0.263,0.794       c-0.378,0.768-0.683,1.477-0.994,2.264c0.41,1.053,0.754,2.066,1.463,4.079c0.808-2.311,1.463-4.615,2.337-6.893v0.007       c0.107-0.537,0.305-1.013,0.875-1.013c0.495,0,0.768,0.278,0.768,0.722c0,0.324-0.067,0.496-0.206,0.841       c-1.085,2.734-1.841,4.979-2.946,8.19c0.014,0.041,0,0.06,0,0.106c0,0.391-0.291,0.716-0.893,0.716       c-0.471,0-0.576-0.325-0.655-0.63v0.007c-0.192-0.616-0.392-1.092-0.59-1.636c-0.319-0.88-0.636-1.88-0.974-2.774       c-0.364,1.04-0.913,2.853-1.43,4.225c0.014,0.079,0.014,0.172,0.014,0.198c0,0.404-0.404,0.61-0.833,0.61       c-0.596,0-0.717-0.549-0.768-0.861C290.916,390.393,289.572,386.751,288.911,385.037z"/>
					<path style="fill:#FFFFFF;" d="M308.009,392.584c0.039-1.846,0-3.701-0.006-7.19l-0.081-0.894c0-0.748,0.113-0.921,0.756-0.927       c0.436,0,0.873-0.014,1.311-0.034c0.444-0.02,0.879-0.059,1.343-0.059c0.941,0,3.432,0.02,3.432,2.853       c0,0.808-0.378,1.51-0.895,2.007c0.444,0.178,0.822,0.49,0.941,0.635c0.378,0.463,0.65,1.092,0.65,1.661       c0,2.96-1.927,3.318-4.503,3.318c-0.305,0-1.166-0.066-1.749-0.179c-0.105,0.046-0.251,0.073-0.449,0.073       c-0.477,0-0.774-0.153-0.828-0.524C307.896,393.088,307.961,392.796,308.009,392.584z M311.365,392.584       c1.206,0,2.63-0.191,2.63-1.715c0-1.251-1.087-1.661-1.782-1.661c-0.608,0-1.212,0.046-2.735,0.059       c0,2.112,0.008,2.636,0.008,3.171C309.909,392.512,310.319,392.584,311.365,392.584z M310.432,387.996       c2.099,0,2.845-0.258,2.845-1.596c0-1.119-0.588-1.53-1.972-1.53c-0.257,0-0.808,0-1.819,0.041v0.013       c0,0.013,0.006,0.027,0.006,0.046c0.014,0.907,0.006,1.833-0.006,2.86v0.086C309.809,387.956,310.167,387.996,310.432,387.996z       "/>
					<path style="fill:#FFFFFF;" d="M317.624,384.613c0-0.749,0.145-1.212,0.701-1.212c0.642,0,0.881,0.404,0.881,1.046       c0,0.556-0.073,1.199-0.073,4.377c0,1.92,0.285,3.781,2.376,3.781c1.604,0,2.192-1.324,2.192-3.709       c0-2.132-0.046-3.674-0.065-4.329c-0.008-0.133-0.008-0.305-0.008-0.332c0-0.629,0.305-0.834,0.768-0.834       c0.61,0,0.802,0.39,0.802,0.735c0,0.291-0.034,0.596-0.034,0.921c0,0.702,0.014,1.297,0.028,1.841       c0,0.635,0.026,1.264,0.026,2.013c0,3.231-1.212,5.112-3.78,5.112c-1.927,0-3.814-0.94-3.828-5.065       C317.604,387.56,317.624,386.155,317.624,384.613z"/>
					<path style="fill:#FFFFFF;" d="M328.354,390.346c0.398,0,0.721,0.239,0.721,0.636c0,0.232-0.071,0.456-0.052,0.702       c0.065,0.596,0.986,1.02,1.927,1.02c0.947,0,2-0.278,2-1.543c0-0.835-0.915-1.457-1.624-1.827       c-1.495-0.781-3.376-1.251-3.376-3.509c0-1.682,1.548-2.424,3.138-2.424c1.41,0,2.735,0.451,2.873,1.801       c0.04,0.496-0.356,0.761-0.728,0.761c-0.562,0-0.76-0.384-0.794-0.702c-0.257-0.424-0.893-0.537-1.43-0.537       c-0.735,0-1.557,0.305-1.557,1.093c0,0.934,0.974,1.41,1.741,1.807c1.398,0.722,3.251,1.636,3.251,3.589       c0,2.086-1.847,2.808-3.509,2.808c-1.418,0-3.522-0.689-3.469-2.576C327.512,390.731,327.718,390.346,328.354,390.346z"/>
					<path style="fill:#FFFFFF;" d="M337.302,391.929c0-2.25-0.059-4.502-0.059-6.906c0-0.244-0.079-0.49-0.079-0.781       c0-0.463,0.212-0.841,1.012-0.841c0.398,0,0.644,0.331,0.644,0.828c0,0.152-0.034,0.291-0.06,0.451       c-0.014,0.754-0.028,1.602-0.028,2.727c0,2.02,0.028,4.297,0.119,5.509v-0.007c0.02,0.132,0.034,0.245,0.034,0.371       c0,0.43-0.164,0.734-0.774,0.734c-0.703,0-0.907-0.258-0.907-0.722C337.203,392.849,337.302,392.419,337.302,391.929z"/>
					<path style="fill:#FFFFFF;" d="M342.072,392.75c0.014-0.961,0.034-1.934,0.034-3.033c0-1.404,0-3.35-0.093-4.728       c-0.034-0.205-0.053-0.351-0.053-0.536c0-0.431,0.18-0.682,0.59-0.774c0.178-0.146,0.41-0.199,0.61-0.199       c0.424,0,0.701,0.563,0.774,0.795c1.079,1.629,4.15,5.243,5.331,6.985c0-5.674-0.133-6.29-0.133-7.004       c0-0.716,0.297-0.854,0.82-0.854c0.689,0,0.734,0.616,0.734,1.132v7.595c0,0.318,0.054,0.635,0.054,0.993       c0,0.682-0.204,0.894-0.741,0.894c-0.491,0-0.788-0.285-0.907-0.635c-1.683-2.291-3.457-4.442-5.212-6.793l-0.398-0.623       c0.02,4.058,0.061,5.277,0.061,6.435c0.006,0.232,0.039,0.503,0.039,0.748c0,0.463-0.121,0.867-0.796,0.867       c-0.449,0-0.8-0.238-0.8-0.616C341.987,393.034,342.066,392.73,342.072,392.75z"/>
					<path style="fill:#FFFFFF;" d="M353.438,392.605l0.059-0.212l-0.152-7.919c0-0.874,0.438-0.88,0.861-0.88h3.489       c0.158-0.014,0.398-0.059,0.477-0.059c0.667,0,0.8,0.238,0.8,0.715c0,0.675-0.365,0.774-0.8,0.774c-0.101,0-0.271,0-0.444-0.02       c-1.715,0-1.986,0.007-2.239,0.007h-0.616v2.099c0.172,0.007,0.339,0.007,3.279,0.007c0.099,0,0.232-0.014,0.35-0.027       c0.159-0.02,0.376-0.039,0.622-0.039c0.477,0,0.748,0.43,0.748,0.727c0,0.47-0.35,0.689-0.841,0.689l-4.158,0.006v3.966       c0.869,0,1.742,0.04,2.703,0.04c0.263,0,0.483-0.033,0.681-0.065c0.186-0.027,0.37-0.054,0.596-0.054       c0.523,0,0.935,0.146,0.935,0.669c0,0.767-0.584,0.794-1.2,0.794h-4.455c-0.449,0-0.788-0.205-0.788-0.748       C353.345,392.922,353.398,392.743,353.438,392.605z"/>
					<path style="fill:#FFFFFF;" d="M362.671,390.346c0.398,0,0.721,0.239,0.721,0.636c0,0.232-0.072,0.456-0.052,0.702       c0.065,0.596,0.986,1.02,1.927,1.02c0.947,0,2-0.278,2-1.543c0-0.835-0.915-1.457-1.624-1.827       c-1.495-0.781-3.376-1.251-3.376-3.509c0-1.682,1.548-2.424,3.139-2.424c1.41,0,2.734,0.451,2.873,1.801       c0.04,0.496-0.357,0.761-0.729,0.761c-0.562,0-0.76-0.384-0.794-0.702c-0.257-0.424-0.893-0.537-1.43-0.537       c-0.734,0-1.556,0.305-1.556,1.093c0,0.934,0.974,1.41,1.741,1.807c1.398,0.722,3.251,1.636,3.251,3.589       c0,2.086-1.847,2.808-3.509,2.808c-1.416,0-3.522-0.689-3.469-2.576C361.83,390.731,362.035,390.346,362.671,390.346z"/>
					<path style="fill:#FFFFFF;" d="M371.617,390.346c0.398,0,0.721,0.239,0.721,0.636c0,0.232-0.071,0.456-0.052,0.702       c0.065,0.596,0.986,1.02,1.927,1.02c0.946,0,2-0.278,2-1.543c0-0.835-0.915-1.457-1.624-1.827       c-1.495-0.781-3.376-1.251-3.376-3.509c0-1.682,1.549-2.424,3.138-2.424c1.41,0,2.735,0.451,2.873,1.801       c0.04,0.496-0.356,0.761-0.729,0.761c-0.562,0-0.76-0.384-0.794-0.702c-0.258-0.424-0.893-0.537-1.43-0.537       c-0.735,0-1.556,0.305-1.556,1.093c0,0.934,0.974,1.41,1.741,1.807c1.398,0.722,3.251,1.636,3.251,3.589       c0,2.086-1.847,2.808-3.509,2.808c-1.416,0-3.523-0.689-3.469-2.576C370.776,390.731,370.982,390.346,371.617,390.346z"/>
				</g>
			</g>
		</g>
		<g>
			<g>
				<path style="fill:#FFE5D2;" d="M337.918,156.493h124.901c5.268,0,9.54,4.783,9.54,10.682v16.97c0,5.9-4.272,10.682-9.54,10.682      H358.063l-14.124,15.455l4.112-15.455h-10.133c-5.269,0-9.54-4.782-9.54-10.682v-16.97      C328.377,161.275,332.649,156.493,337.918,156.493z"/>
			</g>
			<g>
				<g>
					<polygon style="fill:#FFA766;" points="450.736,165.905 447.939,171.573 441.684,172.482 446.21,176.894 445.141,183.124        450.736,180.182 456.331,183.124 455.262,176.894 459.788,172.482 453.533,171.573      "/>
				</g>
				<g>
					<polygon style="fill:#FFA766;" points="426.289,165.905 423.492,171.573 417.237,172.482 421.763,176.894 420.695,183.124        426.289,180.182 431.884,183.124 430.815,176.894 435.342,172.482 429.087,171.573      "/>
				</g>
				<g>
					<polygon style="fill:#FFA766;" points="401.843,165.905 399.045,171.573 392.79,172.482 397.317,176.894 396.248,183.124        401.843,180.182 407.437,183.124 406.369,176.894 410.895,172.482 404.64,171.573      "/>
				</g>
				<g>
					<polygon style="fill:#FFA766;" points="377.396,165.905 374.598,171.573 368.343,172.482 372.869,176.894 371.801,183.124        377.396,180.182 382.99,183.124 381.922,176.894 386.448,172.482 380.193,171.573      "/>
				</g>
				<g>
					<polygon style="fill:#FFA766;" points="352.949,165.905 350.152,171.573 343.897,172.482 348.423,176.894 347.354,183.124        352.949,180.182 358.543,183.124 357.475,176.894 362.001,172.482 355.746,171.573      "/>
				</g>
			</g>
		</g>
		<g>
			<g>
				<g>
					<path style="fill:#F05D6A;" d="M125.22,347.436c0,15.855-11.587,29.011-26.756,31.466c-1.371,0.221-2.764,0.354-4.179,0.398       c-0.31,0.022-0.641,0.022-0.951,0.022c-4.334,0-8.491-0.884-12.272-2.477c-1.327-0.531-2.609-1.172-3.825-1.902       c-9.442-5.506-15.788-15.766-15.788-27.508c0-17.203,13.577-31.201,30.626-31.842c0.42-0.044,0.84-0.044,1.26-0.044       c0.31,0,0.641,0,0.951,0.022c4.378,0.111,8.557,1.128,12.317,2.875c1.283,0.597,2.543,1.283,3.737,2.034       C119.293,326.098,125.22,336.07,125.22,347.436z"/>
				</g>
				<g>
					<path style="fill:#FFA766;" d="M127.099,347.436c0,16.496-12.538,30.073-28.591,31.731c-1.083,0.088-2.189,0.155-3.295,0.155       c-0.31,0-0.619,0-0.929-0.022c-4.622-0.133-8.956-1.216-12.87-3.096c-1.282-0.619-2.543-1.327-3.737-2.123       c-8.646-5.705-14.351-15.523-14.351-26.646c0-16.562,12.604-30.161,28.768-31.709c0.708-0.088,1.459-0.133,2.189-0.155       c0.309-0.022,0.619-0.022,0.929-0.022c4.135,0,8.093,0.796,11.719,2.233c1.327,0.531,2.631,1.15,3.87,1.835       C120.532,325.08,127.099,335.473,127.099,347.436z"/>
				</g>
				<g>
					<path style="fill:#FFF5EE;" d="M109.719,321.675c-1.216-0.708-2.521-1.327-3.848-1.835c-3.295-1.283-6.899-1.99-10.658-1.99       c-0.973,0-1.946,0.044-2.897,0.155c-14.97,1.438-26.69,14.086-26.69,29.432c0,10.216,5.219,19.26,13.135,24.567       c1.194,0.796,2.432,1.504,3.715,2.123c3.869,1.835,8.182,2.875,12.737,2.875c1.017,0,2.034-0.044,3.051-0.155       c14.86-1.526,26.535-14.13,26.535-29.41C124.8,336.402,118.719,326.761,109.719,321.675z M98.22,376.359       c-0.973,0.111-1.99,0.155-3.007,0.155c-4.467,0-8.712-1.017-12.493-2.831c-1.283-0.619-2.543-1.349-3.715-2.145       c-7.761-5.218-12.869-14.063-12.869-24.103c0-15.059,11.521-27.508,26.225-28.945c0.929-0.111,1.879-0.155,2.852-0.155       c3.671,0,7.186,0.685,10.415,1.946c1.327,0.509,2.631,1.128,3.87,1.835c8.823,4.975,14.793,14.484,14.793,25.319       C124.291,362.45,112.837,374.855,98.22,376.359z"/>
				</g>
			</g>
			<g>
				<path style="fill:#FFF5EE;" d="M97.513,345.203c-0.287-0.155-0.597-0.288-0.885-0.42c-0.597-0.287-1.172-0.553-1.703-0.862      c-1.238-0.685-2.167-1.504-2.167-2.83c0-1.017,0.818-1.681,1.703-1.99c0.442-0.177,0.907-0.265,1.305-0.265      c1.083,0,2.344,0.133,2.853,1.194c0.044,0.553,0.464,1.017,0.951,1.216c0.199,0.089,0.398,0.133,0.597,0.133      c0.752,0,1.415-0.53,1.415-1.481c0-0.619-0.177-1.172-0.486-1.615c-0.84-1.282-2.587-1.946-4.069-2.167      c0.022-0.597,0.022-1.305,0.022-1.769c0-0.885-0.553-1.128-1.349-1.128c-1.216,0-1.415,0.774-1.415,1.858v1.15      c-0.044,0-0.066,0.022-0.111,0.044c-2.256,0.575-4.334,2.234-4.334,4.732c0,3.825,2.764,5.064,5.174,6.037      c0.088,0.044,0.155,0.066,0.243,0.111c0.331,0.133,0.685,0.265,1.017,0.42c1.459,0.685,2.83,1.658,2.83,3.405      c0,1.968-1.526,2.72-3.162,2.83c-0.177,0.044-0.376,0.044-0.553,0.044c-0.752,0-1.526-0.111-2.167-0.398      c-0.774-0.287-1.349-0.818-1.349-1.637c0-0.265,0.066-0.575,0.132-0.906c0.067-0.332,0.133-0.686,0.133-1.083      c0-0.818-0.597-1.349-1.393-1.349c-1.747,0-1.747,1.813-1.747,3.361c0,2.034,1.26,3.383,2.941,4.113      c0.641,0.287,1.349,0.487,2.101,0.597c-0.022,0.818-0.022,1.813-0.022,2.344c0,0.885,0.553,1.128,1.371,1.128      c0.575,0,0.929-0.177,1.128-0.508c0.221-0.332,0.265-0.796,0.265-1.371v-1.614c2.72-0.464,5.241-2.3,5.241-5.572      C102.024,347.768,99.746,346.264,97.513,345.203z"/>
			</g>
			<path style="opacity:0.15;fill:#FFE5D2;" d="M127.099,347.436c0,16.496-12.538,30.073-28.591,31.731l-0.044-0.265l-0.199-2.056     l-0.044-0.487l-1.703-16.849l-0.354-3.582l-0.221-2.123l-0.133-1.26l-0.553-5.395l-0.265-2.631l-0.066-0.597l-0.243-2.631     l-0.221-2.189l-0.287-2.83l-0.044-0.376l-0.42-4.047l-1.349-13.356l-0.044-0.487l-0.221-2.277l-0.022-0.133     c0.42-0.044,0.84-0.044,1.26-0.044c0.31,0,0.641,0,0.951,0.022c0.309-0.022,0.619-0.022,0.929-0.022     c4.135,0,8.093,0.796,11.719,2.233c1.327,0.531,2.631,1.15,3.87,1.835C120.532,325.08,127.099,335.473,127.099,347.436z"/>
		</g>
		<g>
			<g>
				<g>
					<path style="fill:#F05D6A;" d="M471.726,287.384c0,15.855-11.587,29.012-26.756,31.466c-1.371,0.221-2.764,0.354-4.179,0.398       c-0.31,0.022-0.641,0.022-0.951,0.022c-4.334,0-8.491-0.884-12.273-2.477c-1.327-0.531-2.609-1.172-3.826-1.902       c-9.442-5.506-15.788-15.766-15.788-27.508c0-17.203,13.577-31.201,30.626-31.842c0.42-0.044,0.84-0.044,1.26-0.044       c0.309,0,0.641,0,0.951,0.022c4.378,0.111,8.558,1.128,12.317,2.875c1.283,0.597,2.543,1.283,3.737,2.034       C465.8,266.046,471.726,276.018,471.726,287.384z"/>
				</g>
				<g>
					<path style="fill:#FFA766;" d="M473.606,287.384c0,16.496-12.538,30.073-28.592,31.732c-1.083,0.088-2.189,0.155-3.295,0.155       c-0.31,0-0.619,0-0.929-0.022c-4.622-0.133-8.955-1.216-12.869-3.096c-1.283-0.619-2.543-1.327-3.737-2.123       c-8.646-5.705-14.351-15.523-14.351-26.646c0-16.562,12.604-30.161,28.768-31.709c0.708-0.089,1.459-0.133,2.189-0.155       c0.31-0.022,0.619-0.022,0.929-0.022c4.135,0,8.093,0.796,11.719,2.233c1.327,0.531,2.631,1.15,3.87,1.835       C467.039,265.028,473.606,275.421,473.606,287.384z"/>
				</g>
				<g>
					<path style="fill:#FFF5EE;" d="M456.226,261.623c-1.216-0.708-2.521-1.327-3.848-1.836c-3.295-1.282-6.899-1.99-10.658-1.99       c-0.973,0-1.946,0.044-2.897,0.155c-14.97,1.438-26.69,14.086-26.69,29.432c0,10.216,5.219,19.26,13.135,24.567       c1.194,0.796,2.433,1.504,3.715,2.123c3.87,1.835,8.182,2.875,12.737,2.875c1.017,0,2.034-0.044,3.052-0.155       c14.86-1.526,26.535-14.13,26.535-29.41C471.306,276.35,465.225,266.709,456.226,261.623z M444.727,316.307       c-0.973,0.11-1.99,0.155-3.007,0.155c-4.467,0-8.712-1.017-12.493-2.83c-1.283-0.619-2.543-1.349-3.715-2.145       c-7.761-5.219-12.869-14.064-12.869-24.103c0-15.059,11.52-27.508,26.225-28.945c0.929-0.111,1.88-0.155,2.853-0.155       c3.671,0,7.186,0.685,10.415,1.946c1.327,0.509,2.631,1.128,3.87,1.835c8.823,4.975,14.793,14.484,14.793,25.319       C470.798,302.398,459.343,314.803,444.727,316.307z"/>
				</g>
			</g>
			<g>
				<path style="fill:#FFF5EE;" d="M444.02,285.151c-0.288-0.155-0.597-0.288-0.885-0.42c-0.597-0.287-1.172-0.553-1.703-0.862      c-1.238-0.686-2.167-1.504-2.167-2.831c0-1.017,0.818-1.68,1.703-1.99c0.442-0.177,0.906-0.265,1.305-0.265      c1.083,0,2.344,0.133,2.853,1.194c0.044,0.553,0.464,1.017,0.951,1.216c0.199,0.088,0.398,0.133,0.597,0.133      c0.752,0,1.415-0.531,1.415-1.482c0-0.619-0.177-1.172-0.487-1.614c-0.84-1.282-2.587-1.946-4.069-2.167      c0.022-0.597,0.022-1.305,0.022-1.769c0-0.884-0.553-1.128-1.349-1.128c-1.216,0-1.415,0.774-1.415,1.858v1.15      c-0.044,0-0.066,0.022-0.111,0.044c-2.255,0.575-4.334,2.233-4.334,4.732c0,3.825,2.764,5.064,5.174,6.037      c0.088,0.044,0.155,0.067,0.243,0.111c0.332,0.133,0.685,0.265,1.017,0.42c1.46,0.686,2.83,1.658,2.83,3.405      c0,1.968-1.526,2.72-3.162,2.83c-0.177,0.044-0.376,0.044-0.553,0.044c-0.752,0-1.526-0.111-2.167-0.398      c-0.774-0.287-1.349-0.818-1.349-1.636c0-0.265,0.066-0.575,0.132-0.907c0.067-0.332,0.133-0.686,0.133-1.083      c0-0.818-0.597-1.349-1.393-1.349c-1.747,0-1.747,1.813-1.747,3.361c0,2.034,1.26,3.383,2.941,4.113      c0.641,0.287,1.349,0.486,2.101,0.597c-0.022,0.818-0.022,1.813-0.022,2.344c0,0.884,0.553,1.128,1.371,1.128      c0.575,0,0.928-0.177,1.128-0.509c0.221-0.332,0.265-0.796,0.265-1.371v-1.614c2.72-0.464,5.241-2.3,5.241-5.572      C448.53,287.716,446.253,286.212,444.02,285.151z"/>
			</g>
			<path style="opacity:0.15;fill:#FFE5D2;" d="M473.606,287.384c0,16.496-12.538,30.073-28.592,31.732l-0.044-0.266l-0.199-2.056     l-0.044-0.486l-1.703-16.85l-0.354-3.582l-0.221-2.123l-0.133-1.26l-0.553-5.395l-0.265-2.631l-0.066-0.597l-0.243-2.631     l-0.221-2.189l-0.288-2.83l-0.044-0.376l-0.42-4.047l-1.349-13.356l-0.044-0.487l-0.221-2.277l-0.022-0.133     c0.42-0.044,0.84-0.044,1.26-0.044c0.309,0,0.641,0,0.951,0.022c0.31-0.022,0.619-0.022,0.929-0.022     c4.135,0,8.093,0.796,11.719,2.233c1.327,0.531,2.631,1.15,3.87,1.835C467.039,265.028,473.606,275.421,473.606,287.384z"/>
		</g>
	</g>
</g>















</svg>
