<?xml version="1.0" encoding="UTF-8"?>
<!-- Generator: Adobe Illustrator 25.2.1, SVG Export Plug-In . SVG Version: 6.00 Build 0)  -->
<svg xmlns="http://www.w3.org/2000/svg" xmlns:xlink="http://www.w3.org/1999/xlink" version="1.1" id="Capa_1" x="0px" y="0px" viewBox="0 0 511.691 511.691" style="enable-background:new 0 0 511.691 511.691;" xml:space="preserve" width="512" height="512">
<g>
	<path style="fill:#FFFFFF;" d="M255.846,511.69c-17.349-0.099-32.66-1.632-49.529-4.915c-12.207-2.416-24.343-5.776-36.102-9.994   C83.617,466.514,17.26,386.572,3.837,295.763C-29.754,89.434,192.266-68.882,376.642,30.418l-0.251-0.116   c194.502,102.512,174.306,391.453-32.758,466.089c-13.239,4.83-27.033,8.571-41.01,11.12   C287.312,510.307,271.621,511.744,255.846,511.69z"/>
	<g>
		<path style="fill:#FFF5EE;" d="M495.679,256.037c-0.892,206.93-245.674,314.883-398.924,176.007c-0.029,0-0.029,0-0.029,0    C-0.831,345.585-6.946,186.639,83.652,92.963C167.406,1.12,317.476-7.572,411.212,74.083h0.029    C464.31,118.494,496.088,186.737,495.679,256.037z"/>
		<g style="opacity:0.47;">
			<g>
				<path style="fill:#FFD0C4;" d="M98.17,432.044l0.924,2.136c-0.433-0.346-0.837-0.722-1.241-1.126l-0.289-0.664l-0.289-0.664      l-15.618-36.345l-0.289-0.693l-15.56-36.229l-0.26-0.664l-15.531-36.114l-0.289-0.664L34.286,285.02l-0.289-0.664      l-14.838-34.584l-0.548-1.241v-0.029l-0.289-0.664c0.202-0.144,0.404-0.289,0.635-0.404l0.26,0.664h0.029l15.387,35.854      l0.289,0.693l15.444,35.969l0.289,0.664l15.502,36.143l0.289,0.664l15.56,36.229l0.289,0.693L97.91,431.38L98.17,432.044z"/>
				<path style="fill:#FFD0C4;" d="M149.67,448.96l10.652,24.797c-0.318-0.144-0.635-0.26-0.953-0.404l-10.335-24.047l-0.289-0.664      l-15.733-36.691l-0.289-0.664l-15.704-36.604l-0.289-0.664l-15.675-36.518l-0.289-0.664l-15.646-36.46l-0.289-0.664      L69.216,263.34l-0.289-0.664l-15.56-36.229l-0.289-0.693l-7.794-18.158c-2.569-5.976-5.138-11.951-7.708-17.956      c-0.087-0.202-0.202-0.433-0.289-0.664c-1.645-3.81-3.291-7.65-4.936-11.46c0.087-0.346,0.202-0.693,0.346-1.01      c1.732,4.041,3.493,8.083,5.196,12.096c0.116,0.231,0.202,0.433,0.289,0.664c2.598,6.033,5.196,12.038,7.765,18.042      l7.765,18.071l0.289,0.693l15.56,36.229l0.289,0.664l15.589,36.374l0.289,0.664l15.675,36.46l0.26,0.664l15.704,36.547      l0.289,0.664l15.704,36.604l0.26,0.635v0.029l15.762,36.691L149.67,448.96z"/>
				<path style="fill:#FFD0C4;" d="M149.67,448.96l10.652,24.797c-0.318-0.144-0.635-0.26-0.953-0.404l-10.335-24.047l-0.289-0.664      l-15.733-36.691l-0.289-0.664l-15.704-36.604l-0.289-0.664l-15.675-36.518l-0.289-0.664l-15.646-36.46l-0.289-0.664      L69.216,263.34l-0.289-0.664l-15.56-36.229l-0.289-0.693l-7.794-18.158c-2.569-5.976-5.138-11.951-7.708-17.956      c-0.087-0.202-0.202-0.433-0.289-0.664c-1.645-3.81-3.291-7.65-4.936-11.46c0.087-0.346,0.202-0.693,0.346-1.01      c1.732,4.041,3.493,8.083,5.196,12.096c0.116,0.231,0.202,0.433,0.289,0.664c2.598,6.033,5.196,12.038,7.765,18.042      l7.765,18.071l0.289,0.693l15.56,36.229l0.289,0.664l15.589,36.374l0.289,0.664l15.675,36.46l0.26,0.664l15.704,36.547      l0.289,0.664l15.704,36.604l0.26,0.635v0.029l15.762,36.691L149.67,448.96z"/>
				<path style="fill:#FFD0C4;" d="M201.546,466.743l9.93,23.181c-0.289-0.029-0.548-0.087-0.837-0.144l-9.728-22.69l-0.289-0.664      l-15.82-36.835l-0.289-0.664l-15.819-36.835l-0.26-0.635l-15.791-36.807l-0.289-0.635l-15.762-36.749l-0.289-0.664      l-15.733-36.662v-0.029l-0.289-0.606l-15.733-36.633l-0.26-0.664l-14.78-34.41c-0.318-0.722-0.606-1.385-0.924-2.107v-0.029      c-0.087-0.231-0.174-0.433-0.289-0.664c-5.167-12.096-10.392-24.249-15.675-36.403c-0.116-0.231-0.202-0.462-0.317-0.693      c-5.225-12.067-10.537-24.134-15.935-36.171c-0.087-0.202-0.173-0.404-0.289-0.635c-0.202-0.462-0.404-0.924-0.635-1.414      c0.144-0.26,0.289-0.52,0.462-0.751c0.26,0.577,0.549,1.184,0.808,1.79c0.087,0.202,0.173,0.404,0.289,0.635      c5.398,12.038,10.71,24.133,15.935,36.2c0.116,0.231,0.202,0.462,0.289,0.664c5.283,12.153,10.508,24.307,15.704,36.402      c0.115,0.231,0.202,0.462,0.289,0.693c0.318,0.722,0.635,1.472,0.953,2.194l14.722,34.324l0.289,0.664l15.733,36.633l0.26,0.635      l15.762,36.662l0.289,0.693l15.762,36.749l0.289,0.635l15.791,36.806l0.26,0.635l15.82,36.835l0.289,0.664l15.82,36.835      L201.546,466.743z"/>
				<path style="fill:#FFD0C4;" d="M201.546,466.743l9.93,23.181c-0.289-0.029-0.548-0.087-0.837-0.144l-9.728-22.69l-0.289-0.664      l-15.82-36.835l-0.289-0.664l-15.819-36.835l-0.26-0.635l-15.791-36.807l-0.289-0.635l-15.762-36.749l-0.289-0.664      l-15.733-36.662v-0.029l-0.289-0.606l-15.733-36.633l-0.26-0.664l-14.78-34.41c-0.318-0.722-0.606-1.385-0.924-2.107v-0.029      c-0.087-0.231-0.174-0.433-0.289-0.664c-5.167-12.096-10.392-24.249-15.675-36.403c-0.116-0.231-0.202-0.462-0.317-0.693      c-5.225-12.067-10.537-24.134-15.935-36.171c-0.087-0.202-0.173-0.404-0.289-0.635c-0.202-0.462-0.404-0.924-0.635-1.414      c0.144-0.26,0.289-0.52,0.462-0.751c0.26,0.577,0.549,1.184,0.808,1.79c0.087,0.202,0.173,0.404,0.289,0.635      c5.398,12.038,10.71,24.133,15.935,36.2c0.116,0.231,0.202,0.462,0.289,0.664c5.283,12.153,10.508,24.307,15.704,36.402      c0.115,0.231,0.202,0.462,0.289,0.693c0.318,0.722,0.635,1.472,0.953,2.194l14.722,34.324l0.289,0.664l15.733,36.633l0.26,0.635      l15.762,36.662l0.289,0.693l15.762,36.749l0.289,0.635l15.791,36.806l0.26,0.635l15.82,36.835l0.289,0.664l15.82,36.835      L201.546,466.743z"/>
				<path style="fill:#FFD0C4;" d="M253.479,484.699l4.128,9.671h-0.779l-3.984-9.324l-0.289-0.664l-15.82-36.836l-0.289-0.664      l-15.791-36.835l-0.289-0.664l-15.849-36.864l-0.26-0.664l-15.82-36.806l-0.289-0.664l-15.791-36.835l-0.318-0.664v-0.029      l-15.791-36.777l-0.26-0.664l-15.791-36.777l-0.289-0.664l-6.178-14.376c-3.175-7.448-6.38-14.896-9.613-22.372      c-0.087-0.202-0.173-0.433-0.289-0.664c-5.225-12.153-10.536-24.364-15.906-36.547c-0.086-0.231-0.202-0.433-0.289-0.664      c-5.34-12.124-10.768-24.22-16.339-36.258c-0.086-0.231-0.173-0.462-0.289-0.664c-2.598-5.658-5.225-11.287-7.881-16.917      c0.144-0.173,0.318-0.375,0.52-0.548c2.714,5.687,5.369,11.403,7.996,17.119c0.116,0.202,0.202,0.404,0.289,0.635      c5.571,12.067,10.999,24.162,16.339,36.287c0.116,0.231,0.202,0.462,0.289,0.664c5.369,12.182,10.681,24.393,15.906,36.547      c0.116,0.231,0.202,0.462,0.289,0.664c3.233,7.506,6.438,14.983,9.642,22.43l6.149,14.318l0.289,0.664l15.79,36.777l0.26,0.664      l15.82,36.777l0.289,0.693l15.79,36.835l0.289,0.664l15.82,36.806l0.26,0.664l15.848,36.864l0.26,0.664l15.819,36.835      l0.289,0.664l15.819,36.835L253.479,484.699z"/>
				<path style="fill:#FFD0C4;" d="M253.479,484.699l4.128,9.671h-0.779l-3.984-9.324l-0.289-0.664l-15.82-36.836l-0.289-0.664      l-15.791-36.835l-0.289-0.664l-15.849-36.864l-0.26-0.664l-15.82-36.806l-0.289-0.664l-15.791-36.835l-0.318-0.664v-0.029      l-15.791-36.777l-0.26-0.664l-15.791-36.777l-0.289-0.664l-6.178-14.376c-3.175-7.448-6.38-14.896-9.613-22.372      c-0.087-0.202-0.173-0.433-0.289-0.664c-5.225-12.153-10.536-24.364-15.906-36.547c-0.086-0.231-0.202-0.433-0.289-0.664      c-5.34-12.124-10.768-24.22-16.339-36.258c-0.086-0.231-0.173-0.462-0.289-0.664c-2.598-5.658-5.225-11.287-7.881-16.917      c0.144-0.173,0.318-0.375,0.52-0.548c2.714,5.687,5.369,11.403,7.996,17.119c0.116,0.202,0.202,0.404,0.289,0.635      c5.571,12.067,10.999,24.162,16.339,36.287c0.116,0.231,0.202,0.462,0.289,0.664c5.369,12.182,10.681,24.393,15.906,36.547      c0.116,0.231,0.202,0.462,0.289,0.664c3.233,7.506,6.438,14.983,9.642,22.43l6.149,14.318l0.289,0.664l15.79,36.777l0.26,0.664      l15.82,36.777l0.289,0.693l15.79,36.835l0.289,0.664l15.82,36.806l0.26,0.664l15.848,36.864l0.26,0.664l15.819,36.835      l0.289,0.664l15.819,36.835L253.479,484.699z"/>
				<path style="fill:#FFD0C4;" d="M289.304,465.184l10.883,25.346c-0.231,0.058-0.462,0.087-0.722,0.116l-10.797-25.115      l-0.26-0.664l-15.819-36.835l-0.289-0.664l-15.819-36.835l-0.289-0.664l-15.82-36.864l-0.289-0.664l-15.791-36.835l-0.289-0.664      l-15.82-36.836l-0.289-0.664l-15.819-36.864l-0.26-0.635l-13.857-32.245c-0.664-1.53-1.299-3.06-1.992-4.59      c-0.058-0.202-0.173-0.433-0.289-0.664c-5.225-12.211-10.508-24.509-15.877-36.777c-0.087-0.231-0.173-0.462-0.289-0.664      c-5.283-12.211-10.652-24.422-16.137-36.604c-0.087-0.202-0.202-0.433-0.289-0.664c-5.485-12.124-11.027-24.249-16.743-36.258      c-0.086-0.202-0.202-0.433-0.317-0.635c-3.955-8.372-7.996-16.715-12.096-25c0.173-0.144,0.375-0.289,0.577-0.433      c4.128,8.314,8.198,16.686,12.153,25.086c0.116,0.202,0.231,0.404,0.318,0.635c5.716,12.009,11.258,24.105,16.743,36.258      c0.086,0.202,0.173,0.433,0.289,0.664c5.485,12.153,10.854,24.365,16.137,36.576c0.115,0.231,0.231,0.433,0.318,0.664      c5.341,12.298,10.623,24.538,15.877,36.778v0.029c0.087,0.231,0.202,0.462,0.289,0.664c0.664,1.559,1.328,3.089,1.992,4.648      l13.828,32.188l0.26,0.635l15.82,36.864l0.289,0.664l15.82,36.835l0.289,0.664l15.79,36.835l0.289,0.664l15.819,36.864      l0.289,0.664l15.82,36.835l0.289,0.664l15.791,36.835L289.304,465.184z"/>
				<path style="fill:#FFD0C4;" d="M289.304,465.184l10.883,25.346c-0.231,0.058-0.462,0.087-0.722,0.116l-10.797-25.115      l-0.26-0.664l-15.819-36.835l-0.289-0.664l-15.819-36.835l-0.289-0.664l-15.82-36.864l-0.289-0.664l-15.791-36.835l-0.289-0.664      l-15.82-36.836l-0.289-0.664l-15.819-36.864l-0.26-0.635l-13.857-32.245c-0.664-1.53-1.299-3.06-1.992-4.59      c-0.058-0.202-0.173-0.433-0.289-0.664c-5.225-12.211-10.508-24.509-15.877-36.777c-0.087-0.231-0.173-0.462-0.289-0.664      c-5.283-12.211-10.652-24.422-16.137-36.604c-0.087-0.202-0.202-0.433-0.289-0.664c-5.485-12.124-11.027-24.249-16.743-36.258      c-0.086-0.202-0.202-0.433-0.317-0.635c-3.955-8.372-7.996-16.715-12.096-25c0.173-0.144,0.375-0.289,0.577-0.433      c4.128,8.314,8.198,16.686,12.153,25.086c0.116,0.202,0.231,0.404,0.318,0.635c5.716,12.009,11.258,24.105,16.743,36.258      c0.086,0.202,0.173,0.433,0.289,0.664c5.485,12.153,10.854,24.365,16.137,36.576c0.115,0.231,0.231,0.433,0.318,0.664      c5.341,12.298,10.623,24.538,15.877,36.778v0.029c0.087,0.231,0.202,0.462,0.289,0.664c0.664,1.559,1.328,3.089,1.992,4.648      l13.828,32.188l0.26,0.635l15.82,36.864l0.289,0.664l15.82,36.835l0.289,0.664l15.79,36.835l0.289,0.664l15.819,36.864      l0.289,0.664l15.82,36.835l0.289,0.664l15.791,36.835L289.304,465.184z"/>
				<path style="fill:#FFD0C4;" d="M325.157,445.669l14.636,34.064c-0.231,0.087-0.462,0.173-0.693,0.231l-14.578-33.949      l-0.289-0.664l-15.79-36.835l-0.289-0.664l-15.82-36.835l-0.289-0.693l-15.82-36.835l-0.289-0.664l-15.819-36.835l-0.289-0.664      l-15.791-36.835l-0.289-0.664l-15.82-36.864l-0.289-0.635l-5.456-12.731c-3.435-8.025-6.899-16.05-10.392-24.105      c-0.058-0.231-0.173-0.433-0.289-0.664c-5.254-12.24-10.565-24.509-15.964-36.749c-0.116-0.231-0.202-0.433-0.289-0.664      c-5.398-12.182-10.883-24.365-16.483-36.46c-0.087-0.231-0.173-0.433-0.318-0.664c-5.572-12.125-11.258-24.163-17.119-36.114      c-0.115-0.231-0.231-0.462-0.346-0.664c-4.417-9.064-8.949-18.042-13.568-26.934c0.202-0.116,0.404-0.231,0.635-0.346      c4.619,8.92,9.151,17.898,13.568,26.934c0.115,0.202,0.231,0.433,0.346,0.664c5.86,11.951,11.576,23.989,17.147,36.114      c0.116,0.202,0.202,0.404,0.289,0.635c5.6,12.125,11.085,24.306,16.455,36.489c0.116,0.231,0.202,0.462,0.289,0.664      c5.427,12.24,10.739,24.508,16.022,36.72c0.087,0.231,0.202,0.462,0.26,0.693c3.522,8.083,6.986,16.137,10.421,24.162      l5.427,12.673l0.289,0.635l15.819,36.864l0.289,0.664l15.819,36.835l0.26,0.664l15.82,36.835l0.289,0.664l15.819,36.835      l0.289,0.693l15.819,36.835l0.289,0.664l15.791,36.835L325.157,445.669z"/>
				<path style="fill:#FFD0C4;" d="M325.157,445.669l14.636,34.064c-0.231,0.087-0.462,0.173-0.693,0.231l-14.578-33.949      l-0.289-0.664l-15.79-36.835l-0.289-0.664l-15.82-36.835l-0.289-0.693l-15.82-36.835l-0.289-0.664l-15.819-36.835l-0.289-0.664      l-15.791-36.835l-0.289-0.664l-15.82-36.864l-0.289-0.635l-5.456-12.731c-3.435-8.025-6.899-16.05-10.392-24.105      c-0.058-0.231-0.173-0.433-0.289-0.664c-5.254-12.24-10.565-24.509-15.964-36.749c-0.116-0.231-0.202-0.433-0.289-0.664      c-5.398-12.182-10.883-24.365-16.483-36.46c-0.087-0.231-0.173-0.433-0.318-0.664c-5.572-12.125-11.258-24.163-17.119-36.114      c-0.115-0.231-0.231-0.462-0.346-0.664c-4.417-9.064-8.949-18.042-13.568-26.934c0.202-0.116,0.404-0.231,0.635-0.346      c4.619,8.92,9.151,17.898,13.568,26.934c0.115,0.202,0.231,0.433,0.346,0.664c5.86,11.951,11.576,23.989,17.147,36.114      c0.116,0.202,0.202,0.404,0.289,0.635c5.6,12.125,11.085,24.306,16.455,36.489c0.116,0.231,0.202,0.462,0.289,0.664      c5.427,12.24,10.739,24.508,16.022,36.72c0.087,0.231,0.202,0.462,0.26,0.693c3.522,8.083,6.986,16.137,10.421,24.162      l5.427,12.673l0.289,0.635l15.819,36.864l0.289,0.664l15.819,36.835l0.26,0.664l15.82,36.835l0.289,0.664l15.819,36.835      l0.289,0.693l15.819,36.835l0.289,0.664l15.791,36.835L325.157,445.669z"/>
				<path style="fill:#FFD0C4;" d="M376.802,462.99l-0.606,0.318l-0.231-0.491l-15.589-36.345l-0.289-0.664l-15.82-36.806      l-0.289-0.664l-15.791-36.864l-0.289-0.664l-15.82-36.835l-0.289-0.664l-15.82-36.835l-0.289-0.664l-15.791-36.835l-0.289-0.664      l-13.193-30.715c-0.866-2.05-1.761-4.099-2.656-6.149c-0.087-0.202-0.173-0.404-0.26-0.635      c-5.254-12.24-10.537-24.509-15.906-36.806c-0.086-0.231-0.173-0.462-0.289-0.664c-5.312-12.24-10.71-24.451-16.195-36.633      c-0.087-0.231-0.202-0.433-0.289-0.664c-5.485-12.153-11.056-24.249-16.801-36.287c-0.086-0.231-0.173-0.433-0.318-0.664      c-5.716-12.038-11.576-24.018-17.609-35.854c-0.087-0.202-0.202-0.433-0.318-0.664c-3.984-7.794-8.025-15.502-12.153-23.181      c0.231-0.116,0.462-0.173,0.693-0.231c4.099,7.621,8.141,15.329,12.095,23.065c0.115,0.231,0.231,0.462,0.318,0.664      c6.033,11.836,11.893,23.787,17.609,35.854c0.115,0.202,0.231,0.433,0.317,0.664c5.716,12.038,11.316,24.133,16.772,36.315      c0.115,0.202,0.202,0.404,0.289,0.635v0.029c5.514,12.182,10.912,24.364,16.224,36.575c0.087,0.231,0.202,0.433,0.289,0.664      c5.341,12.298,10.652,24.595,15.877,36.835c0.115,0.231,0.202,0.433,0.289,0.635c0.895,2.079,1.761,4.128,2.656,6.207      l13.164,30.658l0.289,0.664l15.79,36.835l0.289,0.664l15.82,36.835l0.289,0.664l15.819,36.864l0.289,0.664l15.82,36.835      l0.289,0.664l15.791,36.835l0.289,0.664l15.589,36.287L376.802,462.99z"/>
				<path style="fill:#FFD0C4;" d="M376.802,462.99l-0.606,0.318l-0.231-0.491l-15.589-36.345l-0.289-0.664l-15.82-36.806      l-0.289-0.664l-15.791-36.864l-0.289-0.664l-15.82-36.835l-0.289-0.664l-15.82-36.835l-0.289-0.664l-15.791-36.835l-0.289-0.664      l-13.193-30.715c-0.866-2.05-1.761-4.099-2.656-6.149c-0.087-0.202-0.173-0.404-0.26-0.635      c-5.254-12.24-10.537-24.509-15.906-36.806c-0.086-0.231-0.173-0.462-0.289-0.664c-5.312-12.24-10.71-24.451-16.195-36.633      c-0.087-0.231-0.202-0.433-0.289-0.664c-5.485-12.153-11.056-24.249-16.801-36.287c-0.086-0.231-0.173-0.433-0.318-0.664      c-5.716-12.038-11.576-24.018-17.609-35.854c-0.087-0.202-0.202-0.433-0.318-0.664c-3.984-7.794-8.025-15.502-12.153-23.181      c0.231-0.116,0.462-0.173,0.693-0.231c4.099,7.621,8.141,15.329,12.095,23.065c0.115,0.231,0.231,0.462,0.318,0.664      c6.033,11.836,11.893,23.787,17.609,35.854c0.115,0.202,0.231,0.433,0.317,0.664c5.716,12.038,11.316,24.133,16.772,36.315      c0.115,0.202,0.202,0.404,0.289,0.635v0.029c5.514,12.182,10.912,24.364,16.224,36.575c0.087,0.231,0.202,0.433,0.289,0.664      c5.341,12.298,10.652,24.595,15.877,36.835c0.115,0.231,0.202,0.433,0.289,0.635c0.895,2.079,1.761,4.128,2.656,6.207      l13.164,30.658l0.289,0.664l15.79,36.835l0.289,0.664l15.82,36.835l0.289,0.664l15.819,36.864l0.289,0.664l15.82,36.835      l0.289,0.664l15.791,36.835l0.289,0.664l15.589,36.287L376.802,462.99z"/>
				<path style="fill:#FFD0C4;" d="M396.836,406.64l13.712,31.957c-0.173,0.173-0.375,0.346-0.578,0.491l-13.77-32.101l-0.289-0.664      l-15.819-36.835l-0.289-0.664l-15.82-36.835v-0.029l-0.26-0.664l-15.82-36.835l-0.289-0.664l-15.82-36.835l-0.289-0.664      l-15.82-36.835l-0.26-0.664l-4.821-11.201c-3.666-8.516-7.332-17.061-11.056-25.634c-0.058-0.231-0.173-0.433-0.26-0.664      c-5.283-12.24-10.595-24.509-16.022-36.749c-0.086-0.231-0.202-0.433-0.289-0.664c-5.398-12.182-10.854-24.364-16.483-36.46      c-0.087-0.231-0.173-0.433-0.289-0.664c-5.601-12.096-11.316-24.162-17.176-36.085c-0.087-0.231-0.202-0.433-0.317-0.635      c-5.889-11.98-11.923-23.845-18.187-35.565c-0.087-0.231-0.202-0.433-0.318-0.664c-2.425-4.561-4.879-9.093-7.39-13.597      c0.231-0.029,0.491-0.058,0.751-0.087c2.454,4.417,4.879,8.863,7.275,13.337c0.115,0.231,0.231,0.433,0.346,0.664      c6.236,11.72,12.269,23.585,18.158,35.565c0.115,0.202,0.231,0.404,0.318,0.635c5.889,11.922,11.605,23.96,17.176,36.085      c0.115,0.202,0.231,0.433,0.318,0.664c5.6,12.096,11.085,24.278,16.483,36.46c0.087,0.231,0.173,0.462,0.289,0.664      c5.398,12.269,10.739,24.509,16.022,36.749c0.087,0.231,0.173,0.433,0.289,0.635c3.695,8.603,7.361,17.176,11.027,25.721      l4.792,11.143l0.289,0.664l15.791,36.835l0.289,0.664l15.819,36.835l0.289,0.664l15.819,36.835l0.289,0.664l15.791,36.864      l0.289,0.664l15.82,36.835L396.836,406.64z"/>
				<path style="fill:#FFD0C4;" d="M396.836,406.64l13.712,31.957c-0.173,0.173-0.375,0.346-0.578,0.491l-13.77-32.101l-0.289-0.664      l-15.819-36.835l-0.289-0.664l-15.82-36.835v-0.029l-0.26-0.664l-15.82-36.835l-0.289-0.664l-15.82-36.835l-0.289-0.664      l-15.82-36.835l-0.26-0.664l-4.821-11.201c-3.666-8.516-7.332-17.061-11.056-25.634c-0.058-0.231-0.173-0.433-0.26-0.664      c-5.283-12.24-10.595-24.509-16.022-36.749c-0.086-0.231-0.202-0.433-0.289-0.664c-5.398-12.182-10.854-24.364-16.483-36.46      c-0.087-0.231-0.173-0.433-0.289-0.664c-5.601-12.096-11.316-24.162-17.176-36.085c-0.087-0.231-0.202-0.433-0.317-0.635      c-5.889-11.98-11.923-23.845-18.187-35.565c-0.087-0.231-0.202-0.433-0.318-0.664c-2.425-4.561-4.879-9.093-7.39-13.597      c0.231-0.029,0.491-0.058,0.751-0.087c2.454,4.417,4.879,8.863,7.275,13.337c0.115,0.231,0.231,0.433,0.346,0.664      c6.236,11.72,12.269,23.585,18.158,35.565c0.115,0.202,0.231,0.404,0.318,0.635c5.889,11.922,11.605,23.96,17.176,36.085      c0.115,0.202,0.231,0.433,0.318,0.664c5.6,12.096,11.085,24.278,16.483,36.46c0.087,0.231,0.173,0.462,0.289,0.664      c5.398,12.269,10.739,24.509,16.022,36.749c0.087,0.231,0.173,0.433,0.289,0.635c3.695,8.603,7.361,17.176,11.027,25.721      l4.792,11.143l0.289,0.664l15.791,36.835l0.289,0.664l15.819,36.835l0.289,0.664l15.819,36.835l0.289,0.664l15.791,36.864      l0.289,0.664l15.82,36.835L396.836,406.64z"/>
				<path style="fill:#FFD0C4;" d="M441.408,407.477l-0.52,0.606l-8.833-20.612v-0.029l-0.289-0.664l-15.82-36.806l-0.289-0.664      l-15.82-36.864l-0.289-0.664l-15.819-36.835l-0.26-0.664l-15.819-36.835l-0.289-0.664l-12.529-29.185      c-1.097-2.54-2.194-5.081-3.291-7.65c-0.086-0.202-0.173-0.433-0.289-0.664c-5.254-12.24-10.537-24.509-15.906-36.806      c-0.087-0.231-0.173-0.462-0.289-0.664c-5.312-12.24-10.71-24.451-16.224-36.633c-0.087-0.202-0.173-0.433-0.289-0.635      c-5.456-12.153-11.056-24.249-16.801-36.287c-0.086-0.231-0.173-0.462-0.318-0.664c-5.716-12.067-11.605-24.018-17.638-35.854      c-0.115-0.202-0.231-0.404-0.346-0.635c-5.716-11.201-11.605-22.257-17.668-33.198c0.289-0.029,0.578,0,0.837,0.029      c6.005,10.797,11.807,21.766,17.465,32.823c0.115,0.202,0.231,0.433,0.346,0.635c6.033,11.836,11.922,23.787,17.638,35.854      c0.144,0.202,0.231,0.433,0.318,0.664c5.745,12.009,11.345,24.134,16.801,36.287c0.116,0.202,0.202,0.404,0.289,0.635      c5.514,12.182,10.912,24.422,16.253,36.633c0.086,0.202,0.202,0.433,0.289,0.635c5.341,12.298,10.652,24.595,15.906,36.835      c0.087,0.231,0.173,0.462,0.26,0.664c1.126,2.569,2.223,5.139,3.32,7.708l12.5,29.128l0.289,0.664l15.82,36.835l0.26,0.664      l15.819,36.835l0.289,0.664l15.819,36.864l0.289,0.664l15.819,36.806l0.289,0.664v0.029L441.408,407.477z"/>
				<path style="fill:#FFD0C4;" d="M441.408,407.477l-0.52,0.606l-8.833-20.612v-0.029l-0.289-0.664l-15.82-36.806l-0.289-0.664      l-15.82-36.864l-0.289-0.664l-15.819-36.835l-0.26-0.664l-15.819-36.835l-0.289-0.664l-12.529-29.185      c-1.097-2.54-2.194-5.081-3.291-7.65c-0.086-0.202-0.173-0.433-0.289-0.664c-5.254-12.24-10.537-24.509-15.906-36.806      c-0.087-0.231-0.173-0.462-0.289-0.664c-5.312-12.24-10.71-24.451-16.224-36.633c-0.087-0.202-0.173-0.433-0.289-0.635      c-5.456-12.153-11.056-24.249-16.801-36.287c-0.086-0.231-0.173-0.462-0.318-0.664c-5.716-12.067-11.605-24.018-17.638-35.854      c-0.115-0.202-0.231-0.404-0.346-0.635c-5.716-11.201-11.605-22.257-17.668-33.198c0.289-0.029,0.578,0,0.837,0.029      c6.005,10.797,11.807,21.766,17.465,32.823c0.115,0.202,0.231,0.433,0.346,0.635c6.033,11.836,11.922,23.787,17.638,35.854      c0.144,0.202,0.231,0.433,0.318,0.664c5.745,12.009,11.345,24.134,16.801,36.287c0.116,0.202,0.202,0.404,0.289,0.635      c5.514,12.182,10.912,24.422,16.253,36.633c0.086,0.202,0.202,0.433,0.289,0.635c5.341,12.298,10.652,24.595,15.906,36.835      c0.087,0.231,0.173,0.462,0.26,0.664c1.126,2.569,2.223,5.139,3.32,7.708l12.5,29.128l0.289,0.664l15.82,36.835l0.26,0.664      l15.819,36.835l0.289,0.664l15.819,36.864l0.289,0.664l15.819,36.806l0.289,0.664v0.029L441.408,407.477z"/>
				<path style="fill:#FFD0C4;" d="M468.284,367.062l0.231,0.52l-0.635,0.346l-0.029-0.057l-0.26-0.606L451.8,330.458l-0.289-0.693      l-15.82-36.835l-0.289-0.664l-15.82-36.835l-0.289-0.664l-15.791-36.835l-0.289-0.664l-4.157-9.671      c-3.868-9.036-7.765-18.1-11.691-27.164c-0.087-0.231-0.174-0.433-0.289-0.664c-5.283-12.24-10.623-24.509-16.022-36.748      c-0.115-0.202-0.202-0.433-0.289-0.635c-5.398-12.182-10.883-24.364-16.512-36.489c-0.087-0.202-0.173-0.433-0.318-0.635      c-5.571-12.124-11.316-24.162-17.176-36.085c-0.116-0.231-0.202-0.433-0.318-0.635c-5.918-11.98-11.98-23.845-18.244-35.536      c-0.087-0.202-0.202-0.433-0.318-0.635c-1.415-2.656-2.858-5.311-4.302-7.967c0.318,0.058,0.606,0.144,0.924,0.231      c1.357,2.454,2.685,4.908,4.013,7.39c0.115,0.202,0.231,0.433,0.346,0.635c6.236,11.691,12.298,23.556,18.216,35.536      c0.115,0.202,0.202,0.404,0.318,0.635c5.889,11.923,11.605,23.96,17.205,36.085c0.115,0.202,0.202,0.404,0.289,0.635      c5.629,12.124,11.114,24.307,16.512,36.489c0.115,0.231,0.202,0.433,0.289,0.635c5.427,12.269,10.768,24.509,16.05,36.749      c0.087,0.231,0.202,0.462,0.289,0.664c3.926,9.093,7.823,18.187,11.691,27.222l4.128,9.613l0.289,0.664l15.791,36.835      l0.289,0.664l15.82,36.835l0.289,0.664l15.82,36.864l0.289,0.664l15.791,36.806L468.284,367.062z"/>
				<path style="fill:#FFD0C4;" d="M468.284,367.062l0.231,0.52l-0.635,0.346l-0.029-0.057l-0.26-0.606L451.8,330.458l-0.289-0.693      l-15.82-36.835l-0.289-0.664l-15.82-36.835l-0.289-0.664l-15.791-36.835l-0.289-0.664l-4.157-9.671      c-3.868-9.036-7.765-18.1-11.691-27.164c-0.087-0.231-0.174-0.433-0.289-0.664c-5.283-12.24-10.623-24.509-16.022-36.748      c-0.115-0.202-0.202-0.433-0.289-0.635c-5.398-12.182-10.883-24.364-16.512-36.489c-0.087-0.202-0.173-0.433-0.318-0.635      c-5.571-12.124-11.316-24.162-17.176-36.085c-0.116-0.231-0.202-0.433-0.318-0.635c-5.918-11.98-11.98-23.845-18.244-35.536      c-0.087-0.202-0.202-0.433-0.318-0.635c-1.415-2.656-2.858-5.311-4.302-7.967c0.318,0.058,0.606,0.144,0.924,0.231      c1.357,2.454,2.685,4.908,4.013,7.39c0.115,0.202,0.231,0.433,0.346,0.635c6.236,11.691,12.298,23.556,18.216,35.536      c0.115,0.202,0.202,0.404,0.318,0.635c5.889,11.923,11.605,23.96,17.205,36.085c0.115,0.202,0.202,0.404,0.289,0.635      c5.629,12.124,11.114,24.307,16.512,36.489c0.115,0.231,0.202,0.433,0.289,0.635c5.427,12.269,10.768,24.509,16.05,36.749      c0.087,0.231,0.202,0.462,0.289,0.664c3.926,9.093,7.823,18.187,11.691,27.222l4.128,9.613l0.289,0.664l15.791,36.835      l0.289,0.664l15.82,36.835l0.289,0.664l15.82,36.864l0.289,0.664l15.791,36.806L468.284,367.062z"/>
				<path style="fill:#FFD0C4;" d="M488.289,310.568l0.722,1.703c-0.087,0.404-0.202,0.779-0.289,1.155l-1.068-2.512l-0.289-0.664      l-15.82-36.836l-0.289-0.664v-0.029l-15.82-36.806l-0.289-0.664l-11.864-27.656c-1.299-3.06-2.627-6.12-3.955-9.18      c-0.087-0.202-0.174-0.433-0.289-0.664c-5.225-12.211-10.537-24.509-15.906-36.777c-0.087-0.231-0.173-0.462-0.289-0.664      c-5.312-12.24-10.71-24.451-16.224-36.633c-0.087-0.231-0.202-0.433-0.318-0.664c-5.485-12.153-11.085-24.278-16.83-36.287      c-0.087-0.231-0.173-0.433-0.318-0.635c-5.716-12.067-11.634-24.018-17.667-35.825c-0.116-0.202-0.231-0.433-0.347-0.635      c-0.693-1.415-1.415-2.8-2.136-4.186c0.375,0.202,0.722,0.404,1.097,0.577c0.548,1.097,1.126,2.165,1.674,3.262      c0.115,0.202,0.231,0.433,0.318,0.635c6.062,11.836,11.98,23.758,17.725,35.796v0.029c0.116,0.202,0.202,0.404,0.289,0.635      c5.745,12.009,11.345,24.134,16.83,36.287c0.115,0.202,0.231,0.433,0.289,0.664c5.543,12.153,10.941,24.393,16.252,36.604      c0.116,0.231,0.202,0.433,0.289,0.664v0.029c5.369,12.298,10.681,24.538,15.906,36.778c0.115,0.231,0.202,0.433,0.289,0.664      c1.357,3.089,2.656,6.178,3.984,9.238l11.836,27.598l0.289,0.664l15.82,36.835l0.289,0.664l15.82,36.835L488.289,310.568z"/>
				<path style="fill:#FFD0C4;" d="M488.289,310.568l0.722,1.703c-0.087,0.404-0.202,0.779-0.289,1.155l-1.068-2.512l-0.289-0.664      l-15.82-36.836l-0.289-0.664v-0.029l-15.82-36.806l-0.289-0.664l-11.864-27.656c-1.299-3.06-2.627-6.12-3.955-9.18      c-0.087-0.202-0.174-0.433-0.289-0.664c-5.225-12.211-10.537-24.509-15.906-36.777c-0.087-0.231-0.173-0.462-0.289-0.664      c-5.312-12.24-10.71-24.451-16.224-36.633c-0.087-0.231-0.202-0.433-0.318-0.664c-5.485-12.153-11.085-24.278-16.83-36.287      c-0.087-0.231-0.173-0.433-0.318-0.635c-5.716-12.067-11.634-24.018-17.667-35.825c-0.116-0.202-0.231-0.433-0.347-0.635      c-0.693-1.415-1.415-2.8-2.136-4.186c0.375,0.202,0.722,0.404,1.097,0.577c0.548,1.097,1.126,2.165,1.674,3.262      c0.115,0.202,0.231,0.433,0.318,0.635c6.062,11.836,11.98,23.758,17.725,35.796v0.029c0.116,0.202,0.202,0.404,0.289,0.635      c5.745,12.009,11.345,24.134,16.83,36.287c0.115,0.202,0.231,0.433,0.289,0.664c5.543,12.153,10.941,24.393,16.252,36.604      c0.116,0.231,0.202,0.433,0.289,0.664v0.029c5.369,12.298,10.681,24.538,15.906,36.778c0.115,0.231,0.202,0.433,0.289,0.664      c1.357,3.089,2.656,6.178,3.984,9.238l11.836,27.598l0.289,0.664l15.82,36.835l0.289,0.664l15.82,36.835L488.289,310.568z"/>
				<path style="fill:#FFD0C4;" d="M492.562,217.556c0.173,0.953,0.346,1.934,0.491,2.916l-1.761-4.099l-0.289-0.664l-3.493-8.112      c-4.099-9.526-8.198-19.11-12.355-28.695c-0.087-0.231-0.173-0.433-0.289-0.664c-5.283-12.24-10.623-24.48-16.022-36.72      c-0.116-0.231-0.202-0.433-0.318-0.664c-5.052-11.403-10.19-22.777-15.444-34.122c-0.346-0.78-0.693-1.559-1.068-2.338      c-0.087-0.202-0.173-0.433-0.318-0.635l0.664-0.375c0.086,0.202,0.202,0.433,0.289,0.664c0.779,1.674,1.559,3.348,2.338,5.052      c4.821,10.421,9.526,20.929,14.203,31.408c0.087,0.231,0.173,0.462,0.289,0.664c5.427,12.24,10.768,24.509,16.022,36.72      c0.116,0.231,0.202,0.462,0.289,0.664c4.157,9.613,8.285,19.197,12.384,28.752l3.464,8.054l0.289,0.664L492.562,217.556z"/>
			</g>
			<g>
				<path style="fill:#FFD0C4;" d="M468.515,367.582l-0.635,0.346l-0.087,0.058l-35.103,19.111v0.029l-0.635,0.318v0.029      l-35.219,19.168l-0.635,0.346l-35.219,19.168l-0.606,0.317l-35.219,19.197l-0.635,0.346l-35.219,19.168l-0.635,0.346      l-35.19,19.168l-0.635,0.346l-15.531,8.458h-0.029c-0.433,0-0.866-0.029-1.299-0.116l16.57-9.007l0.635-0.347l35.219-19.168      l0.606-0.347l35.218-19.168l0.635-0.347l35.219-19.197l0.606-0.318l35.219-19.168l0.635-0.346l35.219-19.197l0.635-0.346      l35.19-19.168l0.635-0.346l0.173-0.086c-0.029,0.086-0.057,0.173-0.115,0.231L468.515,367.582z"/>
				<path style="fill:#FFD0C4;" d="M468.515,367.582l-0.635,0.346l-0.087,0.058l-35.103,19.111v0.029l-0.635,0.318v0.029      l-35.219,19.168l-0.635,0.346l-35.219,19.168l-0.606,0.317l-35.219,19.197l-0.635,0.346l-35.219,19.168l-0.635,0.346      l-35.19,19.168l-0.635,0.346l-15.531,8.458h-0.029c-0.433,0-0.866-0.029-1.299-0.116l16.57-9.007l0.635-0.347l35.219-19.168      l0.606-0.347l35.218-19.168l0.635-0.347l35.219-19.197l0.606-0.318l35.219-19.168l0.635-0.346l35.219-19.197l0.635-0.346      l35.19-19.168l0.635-0.346l0.173-0.086c-0.029,0.086-0.057,0.173-0.115,0.231L468.515,367.582z"/>
				<path style="fill:#FFD0C4;" d="M489.79,308.923c-0.058,0.318-0.144,0.635-0.202,0.952l-1.299,0.693l-0.635,0.346l-35.219,19.197      l-0.635,0.346l-35.218,19.168l-0.635,0.346l-35.219,19.168l-0.635,0.346l-35.19,19.168l-0.635,0.346l-35.19,19.168l-0.635,0.347      l-35.219,19.168l-0.635,0.346l-35.219,19.168l-0.635,0.346l-23.729,12.933c-3.811,2.078-7.621,4.157-11.461,6.264      c-0.202,0.087-0.433,0.202-0.635,0.346c-8.054,4.388-16.137,8.805-24.249,13.25c-0.318-0.086-0.606-0.202-0.895-0.318      c8.285-4.59,16.599-9.122,24.855-13.597c0.202-0.145,0.433-0.26,0.635-0.347c3.81-2.107,7.621-4.157,11.403-6.235l23.787-12.962      l0.635-0.346l35.219-19.168l0.635-0.346l35.219-19.168l0.635-0.346l35.19-19.168l0.635-0.346l35.19-19.168l0.635-0.347      l35.219-19.168l0.635-0.346l35.219-19.197l0.635-0.317l35.219-19.197l0.635-0.347L489.79,308.923z"/>
				<path style="fill:#FFD0C4;" d="M489.79,308.923c-0.058,0.318-0.144,0.635-0.202,0.952l-1.299,0.693l-0.635,0.346l-35.219,19.197      l-0.635,0.346l-35.218,19.168l-0.635,0.346l-35.219,19.168l-0.635,0.346l-35.19,19.168l-0.635,0.346l-35.19,19.168l-0.635,0.347      l-35.219,19.168l-0.635,0.346l-35.219,19.168l-0.635,0.346l-23.729,12.933c-3.811,2.078-7.621,4.157-11.461,6.264      c-0.202,0.087-0.433,0.202-0.635,0.346c-8.054,4.388-16.137,8.805-24.249,13.25c-0.318-0.086-0.606-0.202-0.895-0.318      c8.285-4.59,16.599-9.122,24.855-13.597c0.202-0.145,0.433-0.26,0.635-0.347c3.81-2.107,7.621-4.157,11.403-6.235l23.787-12.962      l0.635-0.346l35.219-19.168l0.635-0.346l35.219-19.168l0.635-0.346l35.19-19.168l0.635-0.346l35.19-19.168l0.635-0.347      l35.219-19.168l0.635-0.346l35.219-19.197l0.635-0.317l35.219-19.197l0.635-0.347L489.79,308.923z"/>
				<path style="fill:#FFD0C4;" d="M495.622,259.472c0.029,0.289,0.029,0.548,0,0.808l-23.441,12.788l-0.635,0.346l-35.219,19.168      l-0.635,0.346l-35.219,19.168l-0.635,0.346l-35.19,19.168l-0.664,0.346v0.029l-35.19,19.168l-0.606,0.318l-35.219,19.197      l-0.635,0.346l-35.219,19.168l-0.635,0.346L221.262,409.7l-0.606,0.346l-11.778,6.409c-7.794,4.244-15.618,8.487-23.441,12.789      c-0.202,0.115-0.404,0.231-0.635,0.346c-11.691,6.38-23.412,12.846-35.132,19.37c-0.202,0.116-0.433,0.231-0.635,0.346      c-5.629,3.147-11.258,6.322-16.888,9.526c-0.231-0.116-0.462-0.26-0.693-0.462c5.745-3.262,11.518-6.495,17.292-9.728      c0.202-0.116,0.433-0.231,0.635-0.347c11.691-6.553,23.441-12.991,35.132-19.37c0.231-0.144,0.433-0.26,0.635-0.346      c7.823-4.301,15.618-8.545,23.383-12.759l11.836-6.438l0.635-0.347l35.19-19.168l0.635-0.347l35.219-19.197l0.635-0.346      L327.9,350.81l0.606-0.318l35.219-19.197l0.635-0.347l35.19-19.168l0.635-0.346l35.219-19.168l0.635-0.346l35.219-19.168v-0.029      l0.635-0.318L495.622,259.472z"/>
				<path style="fill:#FFD0C4;" d="M495.622,259.472c0.029,0.289,0.029,0.548,0,0.808l-23.441,12.788l-0.635,0.346l-35.219,19.168      l-0.635,0.346l-35.219,19.168l-0.635,0.346l-35.19,19.168l-0.664,0.346v0.029l-35.19,19.168l-0.606,0.318l-35.219,19.197      l-0.635,0.346l-35.219,19.168l-0.635,0.346L221.262,409.7l-0.606,0.346l-11.778,6.409c-7.794,4.244-15.618,8.487-23.441,12.789      c-0.202,0.115-0.404,0.231-0.635,0.346c-11.691,6.38-23.412,12.846-35.132,19.37c-0.202,0.116-0.433,0.231-0.635,0.346      c-5.629,3.147-11.258,6.322-16.888,9.526c-0.231-0.116-0.462-0.26-0.693-0.462c5.745-3.262,11.518-6.495,17.292-9.728      c0.202-0.116,0.433-0.231,0.635-0.347c11.691-6.553,23.441-12.991,35.132-19.37c0.231-0.144,0.433-0.26,0.635-0.346      c7.823-4.301,15.618-8.545,23.383-12.759l11.836-6.438l0.635-0.347l35.19-19.168l0.635-0.347l35.219-19.197l0.635-0.346      L327.9,350.81l0.606-0.318l35.219-19.197l0.635-0.347l35.19-19.168l0.635-0.346l35.219-19.168l0.635-0.346l35.219-19.168v-0.029      l0.635-0.318L495.622,259.472z"/>
				<path style="fill:#FFD0C4;" d="M492.273,215.853l-0.346,0.173l-0.635,0.346l-35.219,19.197l-0.635,0.346l-35.219,19.168      l-0.635,0.346l-35.219,19.168l-0.635,0.346l-35.19,19.168l-0.635,0.346l-35.219,19.168l-0.606,0.347l-35.219,19.168      l-0.635,0.346l-35.219,19.168l-0.635,0.346l-35.219,19.168l-0.404,0.231c-0.087,0.029-0.144,0.086-0.231,0.115      c-11.691,6.38-23.412,12.76-35.19,19.226c-0.202,0.116-0.404,0.231-0.635,0.346c-11.691,6.438-23.412,12.933-35.075,19.486      v0.029c-0.202,0.116-0.404,0.231-0.606,0.346c-11.663,6.582-23.296,13.279-34.844,20.092c-0.202,0.115-0.404,0.231-0.606,0.347      c-0.116,0.058-0.202,0.116-0.289,0.173c-0.202-0.173-0.346-0.317-0.52-0.52c0.173-0.115,0.346-0.231,0.52-0.318      c0.202-0.144,0.433-0.26,0.635-0.346c11.547-6.842,23.152-13.51,34.815-20.092c0.202-0.116,0.433-0.231,0.635-0.347      c11.662-6.582,23.383-13.077,35.074-19.486c0.202-0.144,0.404-0.26,0.635-0.347c11.749-6.495,23.498-12.875,35.19-19.255      c0.058-0.029,0.116-0.058,0.173-0.087l0.462-0.26l35.19-19.168l0.635-0.346l35.219-19.168l0.635-0.346l35.219-19.168      l0.606-0.346l35.219-19.168l0.635-0.346l35.219-19.168l0.635-0.347l35.19-19.168l0.635-0.347l35.219-19.168l0.635-0.347      l35.219-19.197l0.635-0.346l0.519-0.289C492.215,215.333,492.273,215.593,492.273,215.853z"/>
				<path style="fill:#FFD0C4;" d="M492.273,215.853l-0.346,0.173l-0.635,0.346l-35.219,19.197l-0.635,0.346l-35.219,19.168      l-0.635,0.346l-35.219,19.168l-0.635,0.346l-35.19,19.168l-0.635,0.346l-35.219,19.168l-0.606,0.347l-35.219,19.168      l-0.635,0.346l-35.219,19.168l-0.635,0.346l-35.219,19.168l-0.404,0.231c-0.087,0.029-0.144,0.086-0.231,0.115      c-11.691,6.38-23.412,12.76-35.19,19.226c-0.202,0.116-0.404,0.231-0.635,0.346c-11.691,6.438-23.412,12.933-35.075,19.486      v0.029c-0.202,0.116-0.404,0.231-0.606,0.346c-11.663,6.582-23.296,13.279-34.844,20.092c-0.202,0.115-0.404,0.231-0.606,0.347      c-0.116,0.058-0.202,0.116-0.289,0.173c-0.202-0.173-0.346-0.317-0.52-0.52c0.173-0.115,0.346-0.231,0.52-0.318      c0.202-0.144,0.433-0.26,0.635-0.346c11.547-6.842,23.152-13.51,34.815-20.092c0.202-0.116,0.433-0.231,0.635-0.347      c11.662-6.582,23.383-13.077,35.074-19.486c0.202-0.144,0.404-0.26,0.635-0.347c11.749-6.495,23.498-12.875,35.19-19.255      c0.058-0.029,0.116-0.058,0.173-0.087l0.462-0.26l35.19-19.168l0.635-0.346l35.219-19.168l0.635-0.346l35.219-19.168      l0.606-0.346l35.219-19.168l0.635-0.346l35.219-19.168l0.635-0.347l35.19-19.168l0.635-0.347l35.219-19.168l0.635-0.347      l35.219-19.197l0.635-0.346l0.519-0.289C492.215,215.333,492.273,215.593,492.273,215.853z"/>
				<path style="fill:#FFD0C4;" d="M481.65,175.352l-5.86,3.204l-0.635,0.346l-35.19,19.168l-0.635,0.346l-35.19,19.168      l-0.635,0.346L368.286,237.1l-0.635,0.346l-35.219,19.168l-0.635,0.347l-35.219,19.168l-0.606,0.346l-35.219,19.168      l-0.635,0.346l-35.19,19.168l-0.635,0.346l-23.643,12.875c-3.839,2.107-7.708,4.214-11.576,6.322      c-0.202,0.086-0.433,0.202-0.635,0.346c-11.691,6.351-23.412,12.788-35.161,19.255c-0.202,0.116-0.404,0.231-0.635,0.346      c-11.691,6.466-23.354,13.019-34.988,19.688c-0.23,0.086-0.433,0.231-0.635,0.346c-11.663,6.639-23.238,13.424-34.728,20.323      c-0.202,0.116-0.404,0.231-0.635,0.375c-4.041,2.425-8.083,4.879-12.096,7.333c-0.173-0.173-0.317-0.375-0.462-0.578      c4.07-2.482,8.169-4.965,12.269-7.448c0.202-0.115,0.404-0.231,0.635-0.375c11.489-6.899,23.094-13.654,34.728-20.294      c0.202-0.116,0.433-0.26,0.635-0.346c11.634-6.669,23.296-13.193,34.988-19.659c0.231-0.144,0.433-0.26,0.635-0.346      c11.749-6.495,23.469-12.933,35.161-19.284c0.202-0.145,0.433-0.26,0.635-0.346c3.839-2.107,7.679-4.215,11.518-6.293      l23.701-12.904l0.635-0.347l35.19-19.168l0.664-0.346l35.19-19.168l0.606-0.346l35.219-19.168l0.635-0.346l35.218-19.168      l0.635-0.346l35.219-19.168l0.635-0.347l35.19-19.168l0.635-0.346l35.19-19.168l0.635-0.346l5.918-3.233      C481.505,174.89,481.592,175.12,481.65,175.352z"/>
				<path style="fill:#FFD0C4;" d="M481.65,175.352l-5.86,3.204l-0.635,0.346l-35.19,19.168l-0.635,0.346l-35.19,19.168      l-0.635,0.346L368.286,237.1l-0.635,0.346l-35.219,19.168l-0.635,0.347l-35.219,19.168l-0.606,0.346l-35.219,19.168      l-0.635,0.346l-35.19,19.168l-0.635,0.346l-23.643,12.875c-3.839,2.107-7.708,4.214-11.576,6.322      c-0.202,0.086-0.433,0.202-0.635,0.346c-11.691,6.351-23.412,12.788-35.161,19.255c-0.202,0.116-0.404,0.231-0.635,0.346      c-11.691,6.466-23.354,13.019-34.988,19.688c-0.23,0.086-0.433,0.231-0.635,0.346c-11.663,6.639-23.238,13.424-34.728,20.323      c-0.202,0.116-0.404,0.231-0.635,0.375c-4.041,2.425-8.083,4.879-12.096,7.333c-0.173-0.173-0.317-0.375-0.462-0.578      c4.07-2.482,8.169-4.965,12.269-7.448c0.202-0.115,0.404-0.231,0.635-0.375c11.489-6.899,23.094-13.654,34.728-20.294      c0.202-0.116,0.433-0.26,0.635-0.346c11.634-6.669,23.296-13.193,34.988-19.659c0.231-0.144,0.433-0.26,0.635-0.346      c11.749-6.495,23.469-12.933,35.161-19.284c0.202-0.145,0.433-0.26,0.635-0.346c3.839-2.107,7.679-4.215,11.518-6.293      l23.701-12.904l0.635-0.347l35.19-19.168l0.664-0.346l35.19-19.168l0.606-0.346l35.219-19.168l0.635-0.346l35.218-19.168      l0.635-0.346l35.219-19.168l0.635-0.347l35.19-19.168l0.635-0.346l35.19-19.168l0.635-0.346l5.918-3.233      C481.505,174.89,481.592,175.12,481.65,175.352z"/>
				<path style="fill:#FFD0C4;" d="M464.647,138.372l-5.167,2.8l-0.635,0.346L423.77,160.6v0.029l-0.635,0.347l-35.103,19.111      l-0.664,0.346l-35.19,19.168l-0.635,0.347l-35.19,19.168l-0.664,0.346l-35.19,19.168l-0.606,0.346l-35.219,19.168l-0.635,0.346      l-35.219,19.168l-0.635,0.346l-11.663,6.351c-7.823,4.243-15.675,8.516-23.527,12.846c-0.202,0.087-0.404,0.202-0.635,0.347      c-11.691,6.38-23.412,12.846-35.132,19.37c-0.202,0.116-0.433,0.231-0.635,0.346c-11.691,6.524-23.325,13.135-34.93,19.861      c-0.202,0.116-0.404,0.231-0.606,0.375c-11.634,6.726-23.181,13.568-34.612,20.583c-0.202,0.115-0.433,0.26-0.635,0.375      c-6.034,3.695-12.009,7.448-17.956,11.229c-0.087-0.202-0.202-0.404-0.347-0.635c5.976-3.782,11.98-7.535,18.043-11.258      c0.202-0.116,0.404-0.231,0.606-0.375c11.431-7.015,22.979-13.856,34.612-20.583c0.202-0.144,0.404-0.26,0.635-0.375      c11.576-6.726,23.21-13.337,34.901-19.861c0.202-0.115,0.433-0.231,0.635-0.375c11.691-6.524,23.412-12.962,35.103-19.342      v-0.029c0.231-0.115,0.462-0.231,0.664-0.346c7.852-4.272,15.675-8.545,23.469-12.788l11.72-6.38l0.635-0.347l35.219-19.168      l0.635-0.346l35.219-19.168l0.606-0.346l35.219-19.168l0.635-0.346l35.19-19.168l0.664-0.346l35.161-19.168l0.664-0.346      l35.103-19.11l0.635-0.375l35.046-19.082l0.664-0.346l5.081-2.771C464.416,137.968,464.531,138.17,464.647,138.372z"/>
				<path style="fill:#FFD0C4;" d="M464.647,138.372l-5.167,2.8l-0.635,0.346L423.77,160.6v0.029l-0.635,0.347l-35.103,19.111      l-0.664,0.346l-35.19,19.168l-0.635,0.347l-35.19,19.168l-0.664,0.346l-35.19,19.168l-0.606,0.346l-35.219,19.168l-0.635,0.346      l-35.219,19.168l-0.635,0.346l-11.663,6.351c-7.823,4.243-15.675,8.516-23.527,12.846c-0.202,0.087-0.404,0.202-0.635,0.347      c-11.691,6.38-23.412,12.846-35.132,19.37c-0.202,0.116-0.433,0.231-0.635,0.346c-11.691,6.524-23.325,13.135-34.93,19.861      c-0.202,0.116-0.404,0.231-0.606,0.375c-11.634,6.726-23.181,13.568-34.612,20.583c-0.202,0.115-0.433,0.26-0.635,0.375      c-6.034,3.695-12.009,7.448-17.956,11.229c-0.087-0.202-0.202-0.404-0.347-0.635c5.976-3.782,11.98-7.535,18.043-11.258      c0.202-0.116,0.404-0.231,0.606-0.375c11.431-7.015,22.979-13.856,34.612-20.583c0.202-0.144,0.404-0.26,0.635-0.375      c11.576-6.726,23.21-13.337,34.901-19.861c0.202-0.115,0.433-0.231,0.635-0.375c11.691-6.524,23.412-12.962,35.103-19.342      v-0.029c0.231-0.115,0.462-0.231,0.664-0.346c7.852-4.272,15.675-8.545,23.469-12.788l11.72-6.38l0.635-0.347l35.219-19.168      l0.635-0.346l35.219-19.168l0.606-0.346l35.219-19.168l0.635-0.346l35.19-19.168l0.664-0.346l35.161-19.168l0.664-0.346      l35.103-19.11l0.635-0.375l35.046-19.082l0.664-0.346l5.081-2.771C464.416,137.968,464.531,138.17,464.647,138.372z"/>
				<path style="fill:#FFD0C4;" d="M442.649,104.048l-0.635,0.346l-0.549,0.289l-34.237,18.649l-0.606,0.346l-34.93,18.995      l-0.635,0.346l-35.045,19.081l-0.664,0.376l-35.103,19.11l-0.693,0.376l-35.161,19.139l-0.635,0.347l-35.19,19.168l-0.635,0.346      l-35.219,19.168l-0.289,0.173c-0.116,0.058-0.231,0.115-0.347,0.173c-11.691,6.38-23.441,12.788-35.19,19.255      c-0.202,0.087-0.433,0.231-0.635,0.346c-11.691,6.409-23.412,12.904-35.074,19.486c-0.202,0.144-0.404,0.231-0.606,0.346v0.029      c-11.662,6.582-23.296,13.25-34.843,20.063c-0.202,0.115-0.404,0.231-0.606,0.375c-11.576,6.813-23.094,13.77-34.468,20.9      c-0.202,0.116-0.433,0.26-0.635,0.404c-6.091,3.81-12.153,7.679-18.158,11.576c-0.087-0.231-0.173-0.462-0.231-0.693      c5.976-3.897,12.009-7.737,18.1-11.547c0.202-0.144,0.404-0.26,0.635-0.404c11.345-7.101,22.863-14.059,34.468-20.9      c0.202-0.144,0.404-0.26,0.606-0.375c11.518-6.784,23.152-13.481,34.843-20.034c0.202-0.144,0.404-0.26,0.635-0.375      c11.663-6.582,23.383-13.077,35.075-19.515c0.231-0.116,0.433-0.231,0.635-0.346c11.749-6.466,23.499-12.875,35.19-19.226      c0.087-0.058,0.173-0.087,0.26-0.144l0.376-0.202l35.19-19.168l0.635-0.346l35.219-19.168l0.606-0.346l35.19-19.168l0.664-0.346      l35.103-19.139l0.664-0.346l35.045-19.081l0.635-0.347l34.901-19.024l0.635-0.346l34.064-18.533l0.693-0.375l0.664-0.375      C442.447,103.586,442.563,103.817,442.649,104.048z"/>
				<path style="fill:#FFD0C4;" d="M442.649,104.048l-0.635,0.346l-0.549,0.289l-34.237,18.649l-0.606,0.346l-34.93,18.995      l-0.635,0.346l-35.045,19.081l-0.664,0.376l-35.103,19.11l-0.693,0.376l-35.161,19.139l-0.635,0.347l-35.19,19.168l-0.635,0.346      l-35.219,19.168l-0.289,0.173c-0.116,0.058-0.231,0.115-0.347,0.173c-11.691,6.38-23.441,12.788-35.19,19.255      c-0.202,0.087-0.433,0.231-0.635,0.346c-11.691,6.409-23.412,12.904-35.074,19.486c-0.202,0.144-0.404,0.231-0.606,0.346v0.029      c-11.662,6.582-23.296,13.25-34.843,20.063c-0.202,0.115-0.404,0.231-0.606,0.375c-11.576,6.813-23.094,13.77-34.468,20.9      c-0.202,0.116-0.433,0.26-0.635,0.404c-6.091,3.81-12.153,7.679-18.158,11.576c-0.087-0.231-0.173-0.462-0.231-0.693      c5.976-3.897,12.009-7.737,18.1-11.547c0.202-0.144,0.404-0.26,0.635-0.404c11.345-7.101,22.863-14.059,34.468-20.9      c0.202-0.144,0.404-0.26,0.606-0.375c11.518-6.784,23.152-13.481,34.843-20.034c0.202-0.144,0.404-0.26,0.635-0.375      c11.663-6.582,23.383-13.077,35.075-19.515c0.231-0.116,0.433-0.231,0.635-0.346c11.749-6.466,23.499-12.875,35.19-19.226      c0.087-0.058,0.173-0.087,0.26-0.144l0.376-0.202l35.19-19.168l0.635-0.346l35.219-19.168l0.606-0.346l35.19-19.168l0.664-0.346      l35.103-19.139l0.664-0.346l35.045-19.081l0.635-0.347l34.901-19.024l0.635-0.346l34.064-18.533l0.693-0.375l0.664-0.375      C442.447,103.586,442.563,103.817,442.649,104.048z"/>
				<path style="fill:#FFD0C4;" d="M411.241,74.083c0.202,0.144,0.404,0.318,0.578,0.491L390.11,86.381l-0.635,0.346l-34.583,18.822      l-0.635,0.346l-34.786,18.937l-0.635,0.346l-34.901,19.024l-0.664,0.347l-35.045,19.082l-0.635,0.375l-35.161,19.139      l-0.635,0.346l-23.498,12.789c-3.868,2.107-7.765,4.243-11.663,6.379c-0.231,0.087-0.433,0.231-0.664,0.347      c-11.691,6.351-23.412,12.788-35.132,19.284c-0.202,0.086-0.404,0.202-0.635,0.346c-11.691,6.466-23.383,13.019-35.016,19.659      c-0.231,0.115-0.433,0.231-0.635,0.375c-11.634,6.64-23.239,13.395-34.699,20.294c-0.202,0.116-0.404,0.26-0.635,0.375      c-11.547,6.957-23.008,14.03-34.295,21.305c-0.231,0.115-0.433,0.26-0.635,0.375c-4.157,2.656-8.256,5.34-12.355,8.054      c-0.029-0.26-0.087-0.52-0.116-0.779c4.042-2.685,8.112-5.341,12.182-7.939c0.202-0.145,0.433-0.289,0.635-0.404      c11.287-7.246,22.747-14.318,34.294-21.275c0.202-0.116,0.404-0.26,0.635-0.375c11.49-6.899,23.094-13.654,34.728-20.294      c0.202-0.144,0.404-0.259,0.606-0.375c11.634-6.639,23.325-13.192,35.017-19.659c0.231-0.144,0.433-0.26,0.635-0.346      c11.72-6.495,23.441-12.933,35.132-19.284c0.231-0.144,0.433-0.26,0.664-0.346v-0.029c3.868-2.107,7.737-4.215,11.605-6.322      l23.556-12.817l0.664-0.375l35.132-19.11l0.635-0.375l35.045-19.082l0.664-0.346l34.901-18.995l0.635-0.346l34.757-18.938      l0.664-0.346l34.555-18.822l0.664-0.347v-0.029l21.391-11.634H411.241z"/>
				<path style="fill:#FFD0C4;" d="M411.241,74.083c0.202,0.144,0.404,0.318,0.578,0.491L390.11,86.381l-0.635,0.346l-34.583,18.822      l-0.635,0.346l-34.786,18.937l-0.635,0.346l-34.901,19.024l-0.664,0.347l-35.045,19.082l-0.635,0.375l-35.161,19.139      l-0.635,0.346l-23.498,12.789c-3.868,2.107-7.765,4.243-11.663,6.379c-0.231,0.087-0.433,0.231-0.664,0.347      c-11.691,6.351-23.412,12.788-35.132,19.284c-0.202,0.086-0.404,0.202-0.635,0.346c-11.691,6.466-23.383,13.019-35.016,19.659      c-0.231,0.115-0.433,0.231-0.635,0.375c-11.634,6.64-23.239,13.395-34.699,20.294c-0.202,0.116-0.404,0.26-0.635,0.375      c-11.547,6.957-23.008,14.03-34.295,21.305c-0.231,0.115-0.433,0.26-0.635,0.375c-4.157,2.656-8.256,5.34-12.355,8.054      c-0.029-0.26-0.087-0.52-0.116-0.779c4.042-2.685,8.112-5.341,12.182-7.939c0.202-0.145,0.433-0.289,0.635-0.404      c11.287-7.246,22.747-14.318,34.294-21.275c0.202-0.116,0.404-0.26,0.635-0.375c11.49-6.899,23.094-13.654,34.728-20.294      c0.202-0.144,0.404-0.259,0.606-0.375c11.634-6.639,23.325-13.192,35.017-19.659c0.231-0.144,0.433-0.26,0.635-0.346      c11.72-6.495,23.441-12.933,35.132-19.284c0.231-0.144,0.433-0.26,0.664-0.346v-0.029c3.868-2.107,7.737-4.215,11.605-6.322      l23.556-12.817l0.664-0.375l35.132-19.11l0.635-0.375l35.045-19.082l0.664-0.346l34.901-18.995l0.635-0.346l34.757-18.938      l0.664-0.346l34.555-18.822l0.664-0.347v-0.029l21.391-11.634H411.241z"/>
				<path style="fill:#FFD0C4;" d="M373.886,48.131c0.26,0.115,0.491,0.26,0.751,0.433l-2.54,1.357l-0.606,0.346l-34.093,18.562      l-0.635,0.346l-34.382,18.735l-0.635,0.347l-34.583,18.822l-0.664,0.346l-34.786,18.937v0.029l-0.606,0.318l-34.959,19.024      l-0.606,0.346l-11.345,6.178c-7.881,4.301-15.791,8.603-23.729,12.933c-0.202,0.116-0.433,0.231-0.664,0.375      c-11.663,6.38-23.354,12.817-35.046,19.312c-0.202,0.116-0.404,0.26-0.635,0.347c-11.663,6.553-23.325,13.163-34.901,19.89      c-0.231,0.115-0.433,0.231-0.635,0.346v0.029c-11.634,6.697-23.181,13.568-34.584,20.583c-0.202,0.116-0.433,0.231-0.635,0.375      c-11.518,7.073-22.921,14.261-34.122,21.651h-0.029v0.029c-0.202,0.116-0.404,0.26-0.606,0.375l-0.289-0.664      c0.202-0.144,0.404-0.289,0.635-0.404c0.087-0.086,0.173-0.144,0.289-0.202c11.114-7.332,22.401-14.463,33.833-21.478      c0.202-0.115,0.404-0.259,0.635-0.375c11.403-6.986,22.95-13.857,34.584-20.583c0.202-0.145,0.433-0.26,0.635-0.375      c11.576-6.726,23.238-13.337,34.901-19.861c0.231-0.116,0.433-0.231,0.635-0.346c11.691-6.524,23.383-12.962,35.045-19.312      c0.231-0.144,0.433-0.26,0.635-0.375c7.91-4.33,15.82-8.632,23.701-12.904l11.403-6.206l0.606-0.346l34.959-19.024l0.606-0.318      l34.786-18.966l0.635-0.346l34.584-18.822l0.635-0.346l34.382-18.706l0.635-0.346l34.064-18.562l0.635-0.346L373.886,48.131z"/>
				<path style="fill:#FFD0C4;" d="M373.886,48.131c0.26,0.115,0.491,0.26,0.751,0.433l-2.54,1.357l-0.606,0.346l-34.093,18.562      l-0.635,0.346l-34.382,18.735l-0.635,0.347l-34.583,18.822l-0.664,0.346l-34.786,18.937v0.029l-0.606,0.318l-34.959,19.024      l-0.606,0.346l-11.345,6.178c-7.881,4.301-15.791,8.603-23.729,12.933c-0.202,0.116-0.433,0.231-0.664,0.375      c-11.663,6.38-23.354,12.817-35.046,19.312c-0.202,0.116-0.404,0.26-0.635,0.347c-11.663,6.553-23.325,13.163-34.901,19.89      c-0.231,0.115-0.433,0.231-0.635,0.346v0.029c-11.634,6.697-23.181,13.568-34.584,20.583c-0.202,0.116-0.433,0.231-0.635,0.375      c-11.518,7.073-22.921,14.261-34.122,21.651h-0.029v0.029c-0.202,0.116-0.404,0.26-0.606,0.375l-0.289-0.664      c0.202-0.144,0.404-0.289,0.635-0.404c0.087-0.086,0.173-0.144,0.289-0.202c11.114-7.332,22.401-14.463,33.833-21.478      c0.202-0.115,0.404-0.259,0.635-0.375c11.403-6.986,22.95-13.857,34.584-20.583c0.202-0.145,0.433-0.26,0.635-0.375      c11.576-6.726,23.238-13.337,34.901-19.861c0.231-0.116,0.433-0.231,0.635-0.346c11.691-6.524,23.383-12.962,35.045-19.312      c0.231-0.144,0.433-0.26,0.635-0.375c7.91-4.33,15.82-8.632,23.701-12.904l11.403-6.206l0.606-0.346l34.959-19.024l0.606-0.318      l34.786-18.966l0.635-0.346l34.584-18.822l0.635-0.346l34.382-18.706l0.635-0.346l34.064-18.562l0.635-0.346L373.886,48.131z"/>
				<path style="fill:#FFD0C4;" d="M326.197,27.837c0.318,0.087,0.664,0.173,0.981,0.289l-8.314,4.532l-0.664,0.346l-33.775,18.389      l-0.635,0.347l-34.122,18.591l-0.635,0.346l-34.382,18.735l-0.635,0.346l-33.948,18.475c-0.231,0.116-0.433,0.231-0.664,0.347      c-0.202,0.144-0.433,0.231-0.635,0.375c-11.547,6.293-23.152,12.615-34.757,18.995c-0.202,0.116-0.433,0.231-0.635,0.346      c-11.605,6.38-23.238,12.817-34.815,19.37c-0.202,0.116-0.433,0.231-0.635,0.346c-11.633,6.553-23.209,13.222-34.699,20.005      c-0.202,0.116-0.404,0.231-0.606,0.375c-11.576,6.784-23.065,13.741-34.439,20.872c-0.202,0.115-0.404,0.26-0.606,0.375      c-3.695,2.338-7.39,4.676-11.056,7.015c0.086-0.346,0.202-0.693,0.289-1.039c3.464-2.223,6.957-4.446,10.479-6.64      c0.202-0.144,0.404-0.26,0.606-0.375c11.345-7.101,22.834-14.059,34.411-20.9c0.202-0.116,0.404-0.26,0.635-0.346      c11.489-6.813,23.065-13.452,34.699-20.005c0.202-0.116,0.404-0.26,0.635-0.346c11.576-6.553,23.21-13.019,34.814-19.37      c0.231-0.144,0.433-0.26,0.635-0.346c11.605-6.409,23.209-12.702,34.728-18.995c0.231-0.116,0.433-0.231,0.664-0.347      c0.202-0.115,0.404-0.231,0.606-0.346l33.977-18.504l0.635-0.347l34.382-18.706l0.635-0.347l34.093-18.591l0.635-0.346      l33.804-18.389l0.635-0.346L326.197,27.837z"/>
				<path style="fill:#FFD0C4;" d="M326.197,27.837c0.318,0.087,0.664,0.173,0.981,0.289l-8.314,4.532l-0.664,0.346l-33.775,18.389      l-0.635,0.347l-34.122,18.591l-0.635,0.346l-34.382,18.735l-0.635,0.346l-33.948,18.475c-0.231,0.116-0.433,0.231-0.664,0.347      c-0.202,0.144-0.433,0.231-0.635,0.375c-11.547,6.293-23.152,12.615-34.757,18.995c-0.202,0.116-0.433,0.231-0.635,0.346      c-11.605,6.38-23.238,12.817-34.815,19.37c-0.202,0.116-0.433,0.231-0.635,0.346c-11.633,6.553-23.209,13.222-34.699,20.005      c-0.202,0.116-0.404,0.231-0.606,0.375c-11.576,6.784-23.065,13.741-34.439,20.872c-0.202,0.115-0.404,0.26-0.606,0.375      c-3.695,2.338-7.39,4.676-11.056,7.015c0.086-0.346,0.202-0.693,0.289-1.039c3.464-2.223,6.957-4.446,10.479-6.64      c0.202-0.144,0.404-0.26,0.606-0.375c11.345-7.101,22.834-14.059,34.411-20.9c0.202-0.116,0.404-0.26,0.635-0.346      c11.489-6.813,23.065-13.452,34.699-20.005c0.202-0.116,0.404-0.26,0.635-0.346c11.576-6.553,23.21-13.019,34.814-19.37      c0.231-0.144,0.433-0.26,0.635-0.346c11.605-6.409,23.209-12.702,34.728-18.995c0.231-0.116,0.433-0.231,0.664-0.347      c0.202-0.115,0.404-0.231,0.606-0.346l33.977-18.504l0.635-0.347l34.382-18.706l0.635-0.347l34.093-18.591l0.635-0.346      l33.804-18.389l0.635-0.346L326.197,27.837z"/>
				<path style="fill:#FFD0C4;" d="M261.158,17.791L231.193,34.13l-0.664,0.346l-33.804,18.418l-0.635,0.346l-20.121,10.941      c-4.648,2.54-9.324,5.081-14.001,7.65c-0.202,0.087-0.433,0.202-0.635,0.346c-11.431,6.207-22.892,12.5-34.353,18.851      c-0.202,0.116-0.404,0.231-0.635,0.346c-11.489,6.351-22.979,12.817-34.41,19.341c-0.231,0.116-0.433,0.26-0.635,0.375      c-11.518,6.582-22.95,13.25-34.295,20.063c-0.202,0.145-0.433,0.26-0.635,0.375c-1.155,0.722-2.338,1.415-3.493,2.136      c0.231-0.433,0.52-0.866,0.779-1.299c0.809-0.491,1.617-0.981,2.425-1.472c0.202-0.144,0.433-0.26,0.635-0.375      c11.345-6.813,22.777-13.51,34.295-20.092c0.202-0.116,0.404-0.231,0.635-0.346c11.403-6.553,22.892-12.991,34.382-19.341      c0.202-0.145,0.433-0.26,0.635-0.346c11.461-6.351,22.892-12.644,34.324-18.88c0.202-0.115,0.433-0.231,0.635-0.347      c4.676-2.54,9.353-5.081,14.001-7.621l20.15-10.97l0.635-0.346l33.804-18.418l0.635-0.346l28.839-15.704      C260.176,17.762,260.667,17.762,261.158,17.791z"/>
			</g>
		</g>
		
			<ellipse transform="matrix(0.3767 -0.9263 0.9263 0.3767 -211.845 300.442)" style="fill:#FFD2A7;" cx="117.336" cy="307.643" rx="77.636" ry="77.636"/>
		<path style="fill:#FFD2A7;" d="M409.711,80.146c0,42.868-34.757,77.625-77.654,77.625c-42.869,0-77.625-34.757-77.625-77.625    c0-24.711,11.547-46.737,29.532-60.94c10.075,1.097,19.977,2.858,29.618,5.196c0.318,0.058,0.606,0.144,0.924,0.231    c3.926,0.953,7.852,2.021,11.692,3.204c0.318,0.087,0.664,0.173,0.981,0.289c14.578,4.446,28.579,10.277,41.829,17.321    c0.375,0.202,0.722,0.404,1.097,0.577c1.27,0.693,2.54,1.385,3.782,2.107c0.26,0.115,0.491,0.26,0.751,0.433    c12.297,6.928,23.902,14.982,34.699,23.96C409.596,75.036,409.711,77.576,409.711,80.146z"/>
		<g>
			<g>
				<path style="fill:#FFFFFF;" d="M67.38,177.175c0,0,116.91,220.405,143.742,301.859c0,0,101.578,40.248,242.445-91.995      L296.41,57.389C296.41,57.389,148.834,105.303,67.38,177.175z"/>
				<g>
					<g>
						<g>
							<g>
								<path style="fill:#401A49;" d="M222.264,323.151c-0.252,0-0.493-0.142-0.609-0.386c-0.158-0.336-0.014-0.736,0.323-0.895          c44.995-21.2,90.038-43.827,133.877-67.254c0.328-0.175,0.737-0.052,0.91,0.276c0.175,0.329,0.051,0.736-0.276,0.911          c-43.86,23.437-88.923,46.074-133.939,67.285C222.458,323.131,222.359,323.151,222.264,323.151z"/>
								<path style="fill:#401A49;" d="M227.326,332.925c-0.244,0-0.481-0.134-0.599-0.366c-0.169-0.331-0.037-0.736,0.293-0.905          l135.244-68.909c0.333-0.165,0.736-0.037,0.905,0.293c0.169,0.331,0.037,0.736-0.293,0.905l-135.244,68.909          C227.534,332.901,227.429,332.925,227.326,332.925z"/>
								<path style="fill:#401A49;" d="M233.461,342.84c-0.245,0-0.483-0.135-0.6-0.371c-0.168-0.333-0.032-0.736,0.299-0.902          c44.786-22.451,89.94-45.812,134.207-69.431c0.327-0.171,0.734-0.052,0.911,0.276c0.175,0.329,0.051,0.736-0.276,0.911          c-44.278,23.624-89.444,46.989-134.238,69.445C233.665,342.817,233.563,342.84,233.461,342.84z"/>
							</g>
							<g>
								<path style="fill:#401A49;" d="M244.24,368.019c-0.252,0-0.493-0.142-0.609-0.386c-0.158-0.335-0.014-0.736,0.323-0.895          c44.973-21.189,90.016-43.816,133.877-67.255c0.328-0.175,0.736-0.052,0.911,0.276c0.175,0.329,0.051,0.736-0.276,0.911          c-43.881,23.449-88.945,46.087-133.939,67.285C244.434,367.999,244.336,368.019,244.24,368.019z"/>
								<path style="fill:#401A49;" d="M249.303,377.792c-0.244,0-0.481-0.134-0.599-0.367c-0.169-0.331-0.036-0.736,0.293-0.905          l135.245-68.909c0.33-0.165,0.737-0.039,0.905,0.293c0.169,0.331,0.037,0.736-0.293,0.905l-135.245,68.909          C249.51,377.768,249.406,377.792,249.303,377.792z"/>
								<path style="fill:#401A49;" d="M255.437,387.707c-0.245,0-0.483-0.135-0.6-0.371c-0.168-0.333-0.033-0.736,0.299-0.902          c44.837-22.478,89.99-45.837,134.206-69.431c0.33-0.176,0.734-0.052,0.91,0.276c0.175,0.328,0.051,0.736-0.276,0.91          c-44.226,23.599-89.39,46.964-134.237,69.445C255.642,387.685,255.539,387.707,255.437,387.707z"/>
							</g>
							<g>
								<path style="fill:#401A49;" d="M265.758,408.766c-0.252,0-0.493-0.142-0.609-0.386c-0.158-0.335-0.014-0.736,0.323-0.895          c44.973-21.188,90.016-43.816,133.877-67.254c0.327-0.175,0.735-0.052,0.911,0.276c0.175,0.328,0.051,0.736-0.276,0.91          c-43.881,23.449-88.944,46.087-133.939,67.285C265.953,408.746,265.854,408.766,265.758,408.766z"/>
								<path style="fill:#401A49;" d="M270.821,418.541c-0.244,0-0.481-0.134-0.599-0.367c-0.169-0.331-0.037-0.736,0.293-0.905          l135.244-68.909c0.334-0.168,0.737-0.038,0.905,0.293c0.169,0.331,0.036,0.736-0.293,0.905l-135.244,68.909          C271.029,418.517,270.924,418.541,270.821,418.541z"/>
								<path style="fill:#401A49;" d="M276.956,428.455c-0.245,0-0.484-0.135-0.6-0.371c-0.168-0.333-0.033-0.736,0.299-0.902          c44.829-22.474,89.983-45.833,134.207-69.431c0.327-0.175,0.734-0.052,0.91,0.276c0.175,0.328,0.051,0.736-0.276,0.91          c-44.235,23.602-89.4,46.967-134.238,69.445C277.16,428.432,277.057,428.455,276.956,428.455z"/>
							</g>
							<g>
								<path style="fill:#401A49;" d="M206.345,278.022c-0.252,0-0.493-0.142-0.609-0.386c-0.158-0.335-0.014-0.736,0.323-0.895          c44.999-21.201,90.041-43.829,133.876-67.254c0.328-0.175,0.734-0.052,0.91,0.276c0.175,0.329,0.051,0.736-0.276,0.911          c-43.854,23.435-88.918,46.073-133.938,67.285C206.54,278.003,206.441,278.022,206.345,278.022z"/>
								<path style="fill:#401A49;" d="M211.409,287.796c-0.244,0-0.481-0.134-0.599-0.367c-0.169-0.331-0.037-0.736,0.293-0.905          l135.243-68.909c0.331-0.168,0.736-0.038,0.905,0.293c0.169,0.331,0.036,0.736-0.293,0.905l-135.243,68.909          C211.616,287.772,211.511,287.796,211.409,287.796z"/>
								<path style="fill:#401A49;" d="M217.543,297.711c-0.245,0-0.483-0.135-0.6-0.371c-0.168-0.333-0.033-0.736,0.299-0.902          c44.793-22.456,89.947-45.815,134.206-69.431c0.328-0.175,0.734-0.052,0.91,0.276c0.175,0.328,0.051,0.736-0.276,0.911          c-44.27,23.62-89.434,46.985-134.237,69.445C217.747,297.689,217.644,297.711,217.543,297.711z"/>
							</g>
						</g>
						<g>
							<path style="fill:#401A49;" d="M202.402,308.549l-4.157-8.689v-0.029l-5.312-11.172l-3.147-6.582         c-0.087-0.144-0.231-0.26-0.404-0.346c-0.144-0.058-0.346-0.029-0.491,0.029l-27.28,13.02         c-0.346,0.173-0.491,0.548-0.318,0.895l12.615,26.443c0.116,0.259,0.346,0.375,0.606,0.375c0.087,0,0.202,0,0.289-0.058         l27.28-12.991c0.145-0.087,0.26-0.231,0.346-0.404C202.488,308.895,202.459,308.693,202.402,308.549z M174.833,320.933         l-12.038-25.23l26.068-12.442l2.915,6.12l1.011,2.136c0.029,0.029,0.029,0.029,0.029,0.058l3.811,7.996l4.272,8.949         L174.833,320.933z"/>
							<path style="fill:#401A49;" d="M185.308,308.986c-0.089,0-0.179-0.018-0.264-0.053l-9.548-4.07         c-0.341-0.145-0.5-0.541-0.355-0.882c0.145-0.341,0.544-0.5,0.882-0.355l8.63,3.679l0.316-16.916         c0.007-0.371,0.297-0.603,0.685-0.66c0.371,0.007,0.667,0.313,0.66,0.685l-0.334,17.913c-0.004,0.223-0.12,0.43-0.307,0.551         C185.563,308.95,185.436,308.986,185.308,308.986z"/>
						</g>
						<g>
							<path style="fill:#401A49;" d="M223.158,349.57l-12.615-26.443c-0.057-0.173-0.202-0.289-0.375-0.346         c-0.173-0.058-0.347-0.058-0.52,0.029l-27.28,12.99c-0.317,0.173-0.462,0.577-0.317,0.895l12.615,26.472         c0.116,0.231,0.375,0.375,0.606,0.375c0.116,0,0.202-0.029,0.289-0.058l27.28-13.019c0.173-0.087,0.289-0.202,0.346-0.375         C223.244,349.916,223.244,349.743,223.158,349.57z M195.589,361.983l-12.009-25.259l26.039-12.413l12.038,25.23         L195.589,361.983z"/>
						</g>
						<g>
							<path style="fill:#401A49;" d="M245.877,394.95l-12.587-26.443c-0.086-0.173-0.231-0.289-0.404-0.346         c-0.144-0.058-0.346-0.058-0.52,0.029l-27.251,13.019c-0.347,0.144-0.491,0.548-0.318,0.895l12.615,26.443         c0.058,0.144,0.202,0.289,0.375,0.346c0.058,0.029,0.144,0.029,0.231,0.029c0.087,0,0.173-0.029,0.289-0.058l27.251-13.019         C245.905,395.701,246.05,395.296,245.877,394.95z M218.337,407.363l-12.038-25.23l26.039-12.442l12.038,25.23         L218.337,407.363z"/>
						</g>
						<g>
							<path style="fill:#401A49;" d="M265.131,435.971l-12.615-26.443c-0.173-0.346-0.577-0.491-0.895-0.318l-27.28,12.991         c-0.173,0.086-0.289,0.231-0.347,0.375c-0.058,0.173-0.058,0.375,0.029,0.52l12.615,26.443         c0.058,0.173,0.202,0.289,0.376,0.347c0.057,0.029,0.144,0.057,0.231,0.057c0.087,0,0.202-0.029,0.289-0.086l27.28-12.991         C265.131,436.693,265.276,436.289,265.131,435.971z M237.563,448.355l-12.038-25.23l26.068-12.413l12.009,25.23         L237.563,448.355z"/>
						</g>
					</g>
					<g>
						<path style="fill:#401A49;" d="M230.721,240.709l-51.298-97.977c-0.087-0.173-0.231-0.289-0.404-0.346        c-0.144-0.058-0.346-0.029-0.49,0.058l-81.956,44.398c-0.346,0.173-0.462,0.606-0.289,0.924l51.269,96.592        c0.144,0.231,0.375,0.375,0.606,0.375c0.116,0,0.202-0.029,0.317-0.087l33.429-17.58h0.029l9.786-5.139l20.785-10.912        l12.673-6.64l5.254-2.771C230.75,241.431,230.894,241.027,230.721,240.709z M224.861,243.019l-1.184,0.635l-10.71,5.629        l-7.564,3.955l-5.283,2.771l-9.468,4.994l-8.401,4.388l-1.184,0.635l-6.033,3.175l-19.168,10.046l-7.419,3.897l-0.433-0.809        l-1.472-2.8l-0.029-0.029l-48.729-91.799l80.772-43.764l50.663,96.794L224.861,243.019z"/>
						<path style="fill:#401A49;" d="M130.203,196.455l-5.716,2.916l0.375,1.328l7.159-3.637L130.203,196.455z M130.203,196.455        l-5.716,2.916l0.375,1.328l7.159-3.637L130.203,196.455z M175.093,269.317l-0.058-0.115l-38.048-70.553l-0.462-0.837        l-1.617-3.002c-0.173-0.346-0.577-0.462-0.895-0.289l-2.974,1.501l-0.837,0.433l-5.716,2.916l-0.577,0.318l-6.726,3.406        c-0.173,0.087-0.289,0.231-0.346,0.404c-0.058,0.173-0.029,0.347,0.058,0.52l18.158,35.017l0.029,0.058l1.501,2.945        l0.029,0.029l19.255,37.182l0.173,0.318c0.087,0.144,0.231,0.26,0.404,0.318c0.058,0.029,0.116,0.029,0.173,0.029        c0.115,0,0.231-0.029,0.318-0.087l17.869-9.613c0.173-0.086,0.289-0.231,0.317-0.404        C175.179,269.664,175.151,269.462,175.093,269.317z M134.764,235.571l-0.029-0.086l-1.472-2.8l-0.029-0.029l-14.838-28.666        l5.86-3.002h0.029l0.577-0.289l7.159-3.637l0.837-0.433l1.184-0.606l0.635,1.184l0.462,0.866l38.423,71.274l-16.657,8.978        L134.764,235.571z M130.203,196.455l-5.716,2.916l0.375,1.328l7.159-3.637L130.203,196.455z"/>
						<path style="fill:#401A49;" d="M200.381,256.5l-0.26-0.491l-27.8-51.269c-0.087-0.144-0.231-0.26-0.404-0.317        c-0.173-0.058-0.375-0.029-0.549,0.087l-16.454,10.306c-0.318,0.173-0.404,0.549-0.26,0.866l26.414,50.345l0.375,0.722        c0.087,0.144,0.231,0.26,0.404,0.318c0.029,0,0.029,0,0.057,0h0.029c0.029,0.029,0.058,0.029,0.116,0.029        c0.116,0,0.202-0.029,0.317-0.087l9.353-5.081l8.372-4.532c0.173-0.086,0.289-0.231,0.346-0.404        C200.467,256.818,200.467,256.645,200.381,256.5z M156.156,215.623l15.329-9.613l27.395,50.519l-8.227,4.474l-8.343,4.503        l-0.058-0.115L156.156,215.623z"/>
						<path style="fill:#401A49;" d="M225.207,243.654l-0.346-0.635l-31.928-57.736c-0.087-0.144-0.231-0.26-0.404-0.317        c-0.173-0.058-0.375-0.029-0.52,0.058l-17.176,9.844c-0.318,0.202-0.433,0.577-0.26,0.895l30.831,57.476l0.318,0.577        c0.116,0.231,0.346,0.347,0.577,0.347c0.116,0,0.231-0.029,0.317-0.087l5.889-3.06l12.413-6.438        c0.087-0.057,0.173-0.115,0.26-0.202c0.029-0.058,0.058-0.115,0.087-0.202C225.323,244,225.294,243.827,225.207,243.654z         M206.587,252.574l-30.513-56.87l16.021-9.18l31.581,57.13l0.029,0.057l-10.739,5.571L206.587,252.574z"/>
					</g>
					<g>
						<path style="fill:#8F8FEF;" d="M303.644,161.321c0,23.007-18.686,41.667-41.667,41.667c-23.032,0-41.693-18.661-41.693-41.667        c0-15.21,8.155-28.554,20.374-35.813l21.319,35.813l23.978-34.05C296.666,134.787,303.644,147.236,303.644,161.321z"/>
					</g>
					<path style="fill:#FFA766;" d="M283.546,126.228l-21.438,30.425l-19.045-32.001c5.564-3.326,12.081-5.233,19.045-5.233       C270.104,119.42,277.496,121.929,283.546,126.228z"/>
				</g>
			</g>
			<g>
				<g>
					<g>
						<path style="fill:#FF899A;" d="M452.974,281.01l-21.761,3.504l-2.613,0.43l-8.237,1.322l-30.551,4.949        c0,0-3.873,3.504-8.667,12.11c-0.246,0.492-0.522,0.983-0.799,1.506c-0.092,0.184-0.215,0.369-0.307,0.553        c-3.258,6.27-6.823,14.845-9.836,26.248c-1.598,6.086-3.473,11.157-5.471,15.429c-0.123,0.277-0.246,0.522-0.4,0.799        c-0.185,0.43-0.4,0.861-0.615,1.26c-7.684,14.876-17.089,18.319-22.161,17.427c-0.86-0.154-1.475-0.83-1.967-1.906        c-0.308-0.707-0.553-1.629-0.707-2.674c-0.707-4.18-0.369-10.542,0.277-16.352c0.123-1.291,0.277-2.551,0.4-3.75        c0.246-1.629,0.461-3.166,0.676-4.518c0.062-0.461,0.123-0.922,0.184-1.352c0.062-0.369,0.123-0.738,0.185-1.076        c0.215-1.414,0.4-2.459,0.492-2.951c-0.246,0.922-0.492,1.875-0.738,2.828c-0.092,0.338-0.184,0.676-0.277,1.014v0.031        c-0.123,0.43-0.246,0.799-0.369,1.229c-0.492,1.813-1.076,3.596-1.69,5.44c0,0.031,0,0.031,0,0.031        c-0.031,0.062-0.031,0.123-0.061,0.184c0,0.031,0,0.062-0.031,0.092c-5.286,15.645-13.985,31.35-23.451,28.83        c-0.861-0.246-1.629-0.83-2.274-1.721c-0.553-0.737-1.014-1.66-1.414-2.766v-0.031c-1.506-3.965-2.182-10.174-2.397-17.212        v-0.031c-0.061-1.229-0.061-2.49-0.092-3.78c-0.061-7.868,0.369-16.413,0.922-24.035v-0.031        c0.031-0.307,0.031-0.615,0.061-0.891c0.031-0.522,0.092-1.045,0.123-1.568c0.799-10.481,1.813-18.657,1.906-19.64        c-3.012,5.809-6.639,11.157-10.481,15.798c-0.277,0.369-0.553,0.707-0.861,1.045c-0.215,0.276-0.461,0.522-0.676,0.799        c-9.835,11.249-20.931,18.011-27.97,16.382c-2.705-0.615-3.719-4.948-3.719-11.157c0-0.799,0-1.629,0.062-2.49        c0.154-4.918,0.86-10.727,1.783-16.72c0.061-0.307,0.092-0.615,0.154-0.953c0.092-0.492,0.154-0.953,0.215-1.444        c0.615-3.443,1.26-6.885,1.906-10.235c0.154-0.738,0.307-1.506,0.492-2.244c0.891-4.426,1.844-8.576,2.674-12.141        c0.092-0.369,0.184-0.737,0.277-1.106c0.092-0.4,0.184-0.768,0.277-1.137c0.031-0.092,0.031-0.185,0.061-0.277v-0.031        c0.123-0.4,0.215-0.799,0.277-1.168h0.031c0.123-0.491,0.215-0.953,0.338-1.383c0.615-2.367,1.106-4.242,1.444-5.379        c2.735-9.405,48.655-50.222,48.655-50.222l116.519,0.768l9.098,57.322L452.974,281.01z"/>
						<path style="fill:#FF899A;" d="M495.352,240.305c0.317,5.023,0.491,10.104,0.491,15.242c0,1.154,0,2.309-0.058,3.435        c0.029,0.289,0.029,0.549,0,0.808c-0.029,1.27-0.058,2.54-0.116,3.81c0,1.155-0.058,2.31-0.115,3.435        c-0.029,1.039-0.087,2.107-0.173,3.147l-42.002,8.083l-0.837,0.029l-24.74,1.01l-1.068,0.058l-2.598,0.548l-1.386,0.289        l-2.569-3.06l-0.029-0.029l-1.847-2.223v-0.029l-0.578-0.635l-10.046-12.095l-0.029-0.029l-1.963-2.309l-0.029-0.029        l-5.889-7.073l-5.196-6.206l-0.029-0.029l-1.068-1.27l-8.141-1.299l-46.246-7.448h-0.029c0,0,0,0-0.029,0l-1.01-0.144        c-1.068,1.01-2.136,1.963-3.175,2.944c0,0,0,0-0.029,0c-5.283,4.763-10.393,8.92-15.329,12.5c0,0.029-0.029,0.029-0.058,0.057        c-0.029,0.029-0.029,0.029-0.058,0.058c-8.573,6.293-16.599,10.97-23.931,14.376c-2.685,1.241-5.254,2.31-7.765,3.233        c-0.087,0.029-0.144,0.058-0.202,0.058c-4.186,1.53-8.054,2.627-11.662,3.349h-0.029c-4.215,0.837-7.997,1.184-11.316,1.155        c-0.953,0-1.877-0.058-2.742-0.145c-3.666-0.26-6.64-1.039-8.834-2.136c-1.761-0.866-3.031-1.905-3.781-3.06        c-0.231-0.317-0.404-0.664-0.549-1.01c-0.029-0.057-0.058-0.144-0.058-0.202c-0.086-0.26-0.115-0.548-0.058-0.895v-0.029        c0.087-0.952,0.549-2.136,1.328-3.608c0.346-0.606,0.751-1.299,1.184-1.992c1.27-1.992,2.973-4.273,5.023-6.813        c0.693-0.837,1.385-1.674,2.165-2.569c4.243-4.994,9.613-10.739,15.502-16.686c0.664-0.693,1.299-1.328,1.963-1.963        c20.237-20.352,50.664-39.457,51.962-47.372c6.66-40.595,18.65-46.452,29.416-1.126c6.076,25.578,62.037,8.862,77.279,11.72        c4.59,0.866,7.332,1.414,7.332,1.414s1.241-0.029,3.32-0.086h0.029c8.776-0.26,32.361-1.039,41.656-1.472        c0.52-0.029,1.126,0.087,1.79,0.346c1.559,5.976,2.858,12.067,3.926,18.244c0.057,0.26,0.115,0.52,0.115,0.779        c0.115,0.549,0.231,1.126,0.289,1.703c0.173,0.953,0.347,1.934,0.491,2.916C494.226,226.68,494.948,233.435,495.352,240.305z"/>
					</g>
					<g>
						<path style="fill:#401A49;" d="M280.638,307.658c-0.031,0.031-0.031,0.092-0.061,0.123c-0.154,0.338-0.308,0.707-0.492,1.045        c-1.322,2.981-2.797,5.932-4.887,8.544c-2.182,2.705-4.826,4.58-7.592,5.441c0-0.799,0-1.629,0.062-2.49        c2.059-0.799,4.026-2.305,5.717-4.395c1.967-2.398,3.35-5.256,4.641-8.084c0.184-0.338,0.338-0.676,0.492-1.015        c0-0.03,0.031-0.061,0.031-0.092c0.184-0.43,0.584-0.707,1.014-0.707h0.031c0.154,0,0.307,0.061,0.461,0.123        c0.154,0.061,0.276,0.154,0.369,0.276C280.73,306.736,280.853,307.228,280.638,307.658z"/>
						<path style="fill:#401A49;" d="M312.204,369.929c-0.553-0.737-1.014-1.66-1.414-2.766v-0.031        c1.783-5.717,0.922-12.233-2.397-17.212v-0.031c-0.061-1.229-0.061-2.49-0.092-3.78c0.062,0,0.092,0.062,0.154,0.123        C314.14,352.532,315.585,362.183,312.204,369.929z"/>
						<path style="fill:#401A49;" d="M343.616,354.038c0.061,4.149-1.445,8.053-4.026,10.604c-0.308-0.707-0.553-1.629-0.707-2.674        c1.598-2.09,2.49-4.918,2.428-7.899c-0.031-2.674-0.738-5.44-2.152-8.452c0.123-1.291,0.277-2.551,0.4-3.75        c0.215,0.123,0.43,0.307,0.553,0.523C342.417,346.539,343.554,350.381,343.616,354.038z"/>
					</g>
					<g>
						<path style="fill:#401A49;" d="M270.157,258.204c-2.213,2.736-4.703,4.641-7.315,5.655c-1.598,0.646-3.35,0.953-5.194,0.953        c-2.582,0-5.286-0.615-7.868-1.875c0.338-0.615,0.737-1.291,1.168-1.998c3.749,1.752,7.776,2.059,11.065,0.768        c2.244-0.861,4.396-2.52,6.362-4.979c4.949-6.055,6.885-14.261,5.287-21.853c0.646-0.676,1.291-1.322,1.936-1.967        C277.872,241.576,275.843,251.227,270.157,258.204z"/>
						<path style="fill:#401A49;" d="M342.323,236.865c-0.112,0-0.227-0.016-0.341-0.051c-0.608-0.189-0.948-0.834-0.761-1.442        c0.893-2.883,1.682-5.821,2.344-8.734c0.143-0.623,0.767-1.01,1.379-0.869c0.621,0.141,1.01,0.76,0.869,1.379        c-0.675,2.97-1.48,5.967-2.389,8.906C343.272,236.549,342.816,236.865,342.323,236.865z"/>
						<path style="fill:#401A49;" d="M394.904,245.915c-0.281,0-0.563-0.102-0.785-0.309c-0.467-0.432-0.492-1.161-0.059-1.628        l5.922-6.365c0.432-0.467,1.16-0.492,1.628-0.058c0.467,0.434,0.492,1.163,0.059,1.628l-5.922,6.365        C395.521,245.792,395.213,245.915,394.904,245.915z"/>
						<path style="fill:#401A49;" d="M469.417,204.109c-0.123,0.523-0.584,0.891-1.137,0.891c-0.062,0-0.154,0-0.246-0.03        l-32.949-7.315c-0.615-0.154-1.014-0.768-0.891-1.383c0-0.031,0.031-0.092,0.061-0.123c4.61,0.86,7.346,1.414,7.346,1.414        s1.229-0.031,3.319-0.092h0.031l23.574,5.256C469.172,202.849,469.54,203.464,469.417,204.109z"/>
					</g>
					<g>
						<path style="fill:#401A49;" d="M320.757,287.264c-0.326,0-0.651-0.138-0.879-0.407c-0.411-0.486-0.351-1.213,0.133-1.625        l30.997-26.289c0.215-0.182,0.522-0.263,0.77-0.273l56.894,1.177c0.637,0.014,1.142,0.54,1.129,1.177        c-0.013,0.629-0.527,1.128-1.153,1.128c-0.007,0-0.015,0-0.024,0l-56.458-1.167l-30.664,26.007        C321.286,287.174,321.021,287.264,320.757,287.264z"/>
						<path style="fill:#401A49;" d="M357.247,297.073c-0.306,0-0.612-0.122-0.84-0.363c-0.435-0.464-0.413-1.193,0.051-1.63        l19.62-18.441c0.204-0.19,0.47-0.302,0.749-0.312l45.122-1.57c0.608,0.047,1.171,0.474,1.193,1.112        c0.021,0.636-0.476,1.171-1.112,1.193l-44.69,1.553l-19.303,18.146C357.814,296.97,357.531,297.073,357.247,297.073z"/>
					</g>
				</g>
				<path style="fill:#401A49;" d="M430.228,286.218c-0.319,0-0.636-0.132-0.864-0.39l-34.654-39.329l-52.505-9.393      c-4.703,3.188-45.112,30.359-64.662,36.374c-20.937,6.441-29.547-4.643-29.903-5.118c-0.381-0.509-0.279-1.226,0.228-1.609      c0.503-0.384,1.226-0.285,1.613,0.222c0.32,0.422,8.082,10.238,27.383,4.301c20.004-6.155,63.99-36.04,64.432-36.341      c0.249-0.169,0.556-0.235,0.851-0.181l53.363,9.546c0.257,0.047,0.491,0.177,0.662,0.372l34.92,39.631      c0.422,0.479,0.375,1.207-0.102,1.627C430.771,286.124,430.5,286.218,430.228,286.218z"/>
				<path style="fill:#8F8FEF;" d="M495.352,240.305c0.317,5.023,0.491,10.104,0.491,15.242c0,1.154,0,2.309-0.058,3.435      c0.029,0.289,0.029,0.549,0,0.808c-0.029,1.27-0.058,2.54-0.116,3.81l-44.485,6.062l-29.474,4.013l-2.742,0.375l-1.241,0.173      l-6.755,0.895l-10.104,1.385l-12.731,1.732l-12.153,1.646l-3.926,0.548l-23.441,3.175l-3.897,0.549l-19.024,2.569l-3.233,0.433      l-2.512,0.347l-4.532,0.635l-4.07,0.548l-24.999,3.406l-4.041,0.549h-0.145l-3.839,0.52l-7.217,0.981l-10.161,1.386      l-1.126,0.173l-1.646,0.202l-39.635,5.398l-6.466,0.895l-13.828-2.367l-1.617-0.26l-3.378-0.577l-7.073-1.212l-1.357-0.231      l-4.936-0.837l5.023-3.089l1.357-0.866l5.514-3.377l0.087-0.058l1.068-0.664l18.735-11.576l24.076-3.118l4.041-0.52l11.98-1.559      l1.126-0.144l2.829-0.375l14.607-1.876l3.926-0.52l2.627-0.346l9.786-1.27l7.188-0.924l1.587-0.202l51.01-6.611l3.781-0.491      l0.693-0.087l2.569-0.347l36.633-4.734l9.642-1.27l0.346-0.029l2.771-0.375l44.63-5.774L495.352,240.305z"/>
				<g>
					<polygon style="fill:#FFD0C4;" points="222.148,298.007 218.552,301.296 212.067,302.187 193.256,298.991 179.886,296.716        191.873,289.309 211.667,277.076 218.736,281.533 214.034,288.326 220.826,290.17 215.079,295.917      "/>
					<path style="fill:#401A49;" d="M193.256,298.991l-13.37-2.274l11.987-7.407c0.369,0.615,0.645,1.291,0.86,1.967       C193.533,293.735,193.717,296.409,193.256,298.991z"/>
				</g>
				<g>
					<path style="fill:#FF899A;" d="M495.554,267.037c-0.029,1.039-0.087,2.107-0.173,3.147c-0.779,13.077-2.627,25.836-5.427,38.25       c-0.058,0.318-0.144,0.635-0.202,0.952c-0.202,0.809-0.375,1.588-0.577,2.396c-0.086,0.404-0.202,0.779-0.289,1.155       c-4.648,18.793-11.518,36.691-20.323,53.406c-0.029,0.086-0.058,0.173-0.116,0.231c-0.144,0.289-0.289,0.548-0.433,0.808       c0,0.057-0.029,0.086-0.057,0.115c-6.322,11.894-13.655,23.21-21.853,33.804c-1.617-1.039-3.175-2.078-4.705-3.146       c-7.592-5.283-14.434-10.681-19.659-15.906c-3.753-3.753-10.594-8.487-19.428-13.77c-1.328-0.808-2.714-1.617-4.128-2.454       c-0.462-0.26-0.924-0.549-1.385-0.808c-3.175-1.819-6.553-3.695-10.075-5.629c-0.491-0.26-0.982-0.549-1.472-0.779       c-2.916-1.617-5.947-3.204-9.065-4.85c-0.462-0.231-0.953-0.491-1.443-0.751c-3.378-1.761-6.87-3.551-10.421-5.34       c-5.11-2.598-10.363-5.225-15.675-7.852c-0.491-0.231-0.982-0.462-1.472-0.722c-2.252-1.097-4.503-2.194-6.755-3.291       c-0.116-0.058-0.231-0.116-0.346-0.173c-1.415-0.664-2.829-1.357-4.244-2.05c-0.491-0.231-1.01-0.462-1.501-0.722       c-3.147-1.501-6.293-3.002-9.382-4.503c-0.519-0.231-1.039-0.462-1.53-0.722c-4.792-2.281-9.527-4.503-14.146-6.668       c-3.175-1.501-6.293-2.945-9.324-4.359c-2.685-1.27-5.34-2.511-7.881-3.695c-0.52-0.231-1.01-0.462-1.501-0.693       c-3.493-1.645-6.842-3.175-9.988-4.648c-0.664-0.318-1.299-0.606-1.934-0.895c-0.029-0.029-0.087-0.058-0.115-0.058       c-0.491-0.231-0.982-0.462-1.443-0.693c-2.656-1.241-5.168-2.396-7.477-3.464v-0.029c-0.808-0.376-1.588-0.751-2.338-1.097       c-0.087-0.029-0.173-0.087-0.26-0.115c-0.433-0.202-0.837-0.404-1.242-0.635h-0.029c-2.569-1.414-4.532-3.175-5.918-5.081       c-0.577-0.75-1.039-1.559-1.414-2.367c-0.376-0.722-0.635-1.472-0.837-2.223c-1.79-6.495,1.732-13.308,8.834-14.954       c2.54-0.606,5.427-0.866,8.776-0.664c0.202,0,0.375,0.029,0.577,0.029c6.38,0.433,16.657,2.858,28.261,6.12       c0.635,0.202,1.27,0.375,1.934,0.549c3.724,1.068,7.563,2.223,11.431,3.406c0.606,0.202,1.241,0.375,1.876,0.578       c0.115,0.029,0.26,0.086,0.375,0.115c0.664,0.202,1.299,0.404,1.963,0.606c0.289,0.087,0.577,0.173,0.866,0.26       c3.464,1.097,6.899,2.194,10.306,3.262c0.577,0.202,1.184,0.404,1.79,0.578c6.062,1.963,11.923,3.897,17.263,5.629       c0.115,0.058,0.231,0.087,0.347,0.116c0.144,0.058,0.289,0.087,0.491,0.173c7.707,2.54,14.26,4.677,18.706,6.005       c0.664,0.202,1.27,0.375,1.848,0.519c1.617,0.491,2.829,0.779,3.522,0.866c0.029,0,0.087,0,0.116,0.029       c0.924,0.116,2.107,0.289,3.464,0.52c10.219,1.674,30.426,5.716,30.426,5.716l0.116-0.289l2.771-7.015l6.755-17.003       l2.396-6.033l1.414-0.26l2.656-0.491l0.952-0.173l24.22-4.388L495.554,267.037z"/>
					<path style="fill:#401A49;" d="M436.469,315.711c-0.092,0.615-0.676,1.045-1.291,0.953c-0.4-0.031-37.805-5.471-55.14-11.28       c-0.154-0.031-0.277-0.092-0.4-0.123c-0.891-0.308-1.905-0.646-3.012-1.014c-5.656-1.844-14.2-4.457-23.974-7.346       c-0.184-0.061-0.338-0.092-0.492-0.154c-27.939-8.268-65.805-18.749-76.532-20.101c-0.246-0.03-0.492-0.061-0.738-0.061       c-13.677-1.352-16.474,8.575-16.597,9.036c-0.123,0.277-1.076,2.336-0.308,5.133v0.031c0.185,0.676,0.492,1.414,0.922,2.152       c0.676,1.199,1.691,2.428,3.196,3.658c1.414,1.168,4.149,2.766,7.715,4.611c2.828,1.506,6.147,3.135,9.743,4.826h0.031       c0.277,0.154,0.553,0.277,0.83,0.399c3.811,1.814,7.899,3.688,11.925,5.502c0.676,0.307,1.352,0.615,1.998,0.922       c2.213,0.984,4.395,1.967,6.485,2.889c0.707,0.307,1.383,0.615,2.059,0.922c2.305,1.045,4.518,2.029,6.516,2.92       c4.088,1.875,7.407,3.381,9.252,4.334c2.151,1.137,7.714,3.903,14.999,7.53c2.121,1.045,4.365,2.182,6.701,3.35       c0.092,0.031,0.154,0.061,0.246,0.123c7.469,3.719,15.891,7.961,24.128,12.141c16.474,8.299,32.119,16.352,37.436,19.548       c0.553,0.338,0.737,1.045,0.4,1.568c-0.062,0.123-0.154,0.215-0.246,0.307c-0.215,0.184-0.461,0.277-0.738,0.277       c-0.215,0-0.4-0.062-0.584-0.184c-5.287-3.166-20.839-11.157-37.283-19.456c-7.991-4.026-16.167-8.145-23.482-11.772       c-0.184-0.092-0.338-0.184-0.523-0.277c-2.49-1.229-4.856-2.428-7.069-3.535c-7.315-3.658-12.878-6.454-15.03-7.561       c-1.69-0.861-4.672-2.244-8.391-3.903v-0.031c-2.213-0.984-4.703-2.09-7.284-3.258c-0.861-0.4-1.752-0.768-2.643-1.199       c-6.147-2.735-12.97-5.809-19.21-8.76c-0.707-0.338-1.383-0.645-2.059-0.983c-3.104-1.475-6.024-2.92-8.575-4.242       c-4.026-2.09-7.192-3.904-8.79-5.225c-7.96-6.516-4.518-13.493-4.487-13.585c0-0.061,1.813-6.485,8.883-9.313       c1.998-0.799,4.426-1.322,7.346-1.322c0.707,0,1.445,0.031,2.244,0.123c0.246,0,0.523,0,0.799,0.061       c0.154,0,0.307,0,0.461,0.031c6.916,0.891,24.835,5.44,44.167,10.788c0.891,0.246,1.813,0.492,2.736,0.768       c11.434,3.166,23.206,6.577,33.348,9.62c0.799,0.246,1.598,0.461,2.397,0.707h0.031c9.436,2.828,17.273,5.287,21.792,6.823       c0.246,0.092,0.522,0.184,0.768,0.246c7.715,2.551,19.241,5.01,29.722,6.946c13.032,2.428,24.404,4.088,24.619,4.119       C436.131,314.482,436.561,315.065,436.469,315.711z"/>
					<path style="fill:#401A49;" d="M293.479,313.271c-0.078,0-0.158-0.008-0.237-0.024c-0.623-0.131-1.022-0.74-0.893-1.364       c0.932-4.471-1.447-9.65-6.363-13.853c-3.891-3.329-8.581-5.715-13.565-6.899c-5.664-1.345-10.711-0.581-13.852,2.097       c-0.479,0.414-1.208,0.36-1.624-0.129c-0.414-0.483-0.356-1.211,0.129-1.624c3.705-3.165,9.488-4.108,15.881-2.586       c5.337,1.268,10.361,3.824,14.529,7.388c5.566,4.759,8.229,10.77,7.123,16.078       C294.492,312.897,294.013,313.271,293.479,313.271z"/>
				</g>
			</g>
		</g>
		<path style="fill:#401A49;" d="M232.723,19.003c-0.029,9.469-1.674,19.428-6.033,29.214    c-16.455,36.835-64.895,44.081-73.382,45.092l32.159-64.491c-0.404,0.087-0.779,0.231-1.155,0.346    c-0.231,0.058-0.462,0.116-0.693,0.231c-0.029,0-0.058,0.029-0.087,0.029l-32.101,64.404c-0.115,0.26-0.057,0.52,0.087,0.722    c0.144,0.231,0.376,0.375,0.635,0.318c0.058,0,0.952-0.058,2.482-0.26c11.201-1.472,57.245-9.7,73.382-45.784    c4.475-10.017,6.149-20.237,6.149-29.965C233.704,18.888,233.214,18.946,232.723,19.003z"/>
		<g>
			<path style="fill:#401A49;" d="M159.502,404.756c1.422,0.397,2.664,1.399,3.318,2.851c1.17,2.598,0.013,5.653-2.585,6.823     c-2.598,1.171-5.653,0.013-6.823-2.585c-1.171-2.598-0.013-5.653,2.585-6.823C157.144,404.506,158.379,404.443,159.502,404.756"/>
			<path style="fill:#401A49;" d="M164.583,429.599c-0.66,0-1.321-0.12-1.956-0.359c-1.379-0.522-2.473-1.55-3.079-2.896     c-0.605-1.343-0.65-2.843-0.129-4.224c0.523-1.378,1.551-2.471,2.895-3.076c1.178-0.532,2.508-0.629,3.751-0.285l0,0     c1.581,0.439,2.876,1.553,3.551,3.051c1.248,2.773,0.007,6.049-2.766,7.299C166.124,429.436,165.354,429.599,164.583,429.599z      M164.587,419.279c-0.677,0-1.351,0.142-1.976,0.424c-1.168,0.524-2.062,1.475-2.516,2.674c-0.454,1.198-0.414,2.501,0.112,3.672     c0.526,1.168,1.477,2.062,2.675,2.516c1.199,0.449,2.503,0.414,3.671-0.115c2.411-1.086,3.49-3.932,2.404-6.346     c-0.587-1.301-1.711-2.267-3.087-2.651l0,0C165.45,419.336,165.018,419.279,164.587,419.279z"/>
			<path style="fill:#401A49;" d="M171.056,443.948c-2.107,0-4.122-1.211-5.043-3.255c-0.605-1.343-0.652-2.841-0.128-4.221     c0.523-1.378,1.55-2.471,2.895-3.078c1.176-0.527,2.508-0.634,3.751-0.282l0,0c1.583,0.442,2.876,1.553,3.551,3.048     c1.249,2.776,0.008,6.051-2.766,7.302C172.581,443.791,171.812,443.948,171.056,443.948z M171.046,433.628     c-0.675,0-1.347,0.142-1.97,0.424c-1.168,0.527-2.062,1.475-2.516,2.676c-0.454,1.198-0.414,2.501,0.112,3.67     c1.085,2.411,3.93,3.492,6.346,2.404c2.412-1.086,3.49-3.934,2.404-6.348c-0.585-1.298-1.71-2.264-3.087-2.649l0,0     C171.913,433.688,171.479,433.628,171.046,433.628z"/>
		</g>
		<g>
			<path style="fill:#401A49;" d="M334.124,72.252c0.396-1.423,1.396-2.666,2.847-3.322c2.597-1.174,5.653-0.02,6.826,2.577     c1.173,2.597,0.02,5.653-2.577,6.826s-5.653,0.02-6.826-2.577C333.876,74.611,333.811,73.376,334.124,72.252"/>
			<path style="fill:#401A49;" d="M353.446,72.671c-2.105,0-4.118-1.208-5.038-3.245c-0.532-1.178-0.634-2.509-0.29-3.752l0,0     c0.441-1.58,1.55-2.876,3.047-3.555c2.773-1.256,6.049-0.013,7.303,2.758c1.253,2.773,0.016,6.051-2.757,7.304     C354.976,72.513,354.204,72.671,353.446,72.671z M348.815,65.868c-0.301,1.078-0.211,2.237,0.251,3.26     c1.088,2.409,3.938,3.485,6.348,2.394c2.411-1.088,3.486-3.937,2.398-6.346c-0.528-1.168-1.479-2.062-2.679-2.516     c-1.197-0.452-2.504-0.409-3.671,0.117C350.162,63.367,349.197,64.493,348.815,65.868L348.815,65.868z"/>
			<path style="fill:#401A49;" d="M367.788,66.19c-2.104,0-4.118-1.208-5.038-3.245c-0.532-1.176-0.634-2.509-0.29-3.752l0,0     c0.441-1.58,1.55-2.876,3.047-3.555c2.771-1.256,6.05-0.017,7.303,2.756c1.253,2.776,0.016,6.054-2.757,7.307     C369.319,66.033,368.547,66.19,367.788,66.19z M363.158,59.388c-0.301,1.081-0.212,2.237,0.25,3.258     c1.091,2.414,3.942,3.49,6.349,2.396c2.411-1.088,3.486-3.937,2.398-6.351c-0.528-1.166-1.479-2.059-2.679-2.511     c-1.199-0.449-2.504-0.412-3.671,0.117C364.504,56.886,363.54,58.012,363.158,59.388L363.158,59.388z"/>
		</g>
		<path style="fill:#F05D6A;" d="M108.714,374.407c2.267,1.893,3.709,4.74,3.709,7.924c0,5.699-4.62,10.319-10.319,10.319    c-5.699,0-10.319-4.62-10.319-10.319c0-5.699,4.62-10.319,10.319-10.319C104.619,372.012,106.923,372.912,108.714,374.407"/>
		<path style="fill:#8F8FEF;" d="M100.358,124.921c3.32,2.771,5.432,6.941,5.432,11.603c0,8.345-6.765,15.11-15.11,15.11    s-15.109-6.765-15.109-15.11c0-8.345,6.765-15.109,15.109-15.109C94.362,121.415,97.737,122.732,100.358,124.921"/>
		<g>
			<path style="fill:#FFA766;" d="M390.23,141.777c-5.113,4.437-12.855,3.89-17.293-1.223c-4.437-5.113-3.89-12.856,1.223-17.293     c5.113-4.438,12.855-3.89,17.293,1.223C395.891,129.597,395.343,137.339,390.23,141.777z"/>
			<path style="fill:#60D8D2;" d="M450.881,174.256c-5.113,4.438-12.856,3.89-17.293-1.223c-4.437-5.113-3.89-12.856,1.223-17.293     c5.113-4.438,12.856-3.89,17.293,1.223C456.542,162.076,455.994,169.818,450.881,174.256z"/>
			<path style="fill:#401A49;" d="M445.015,164.889c-0.001,0-0.002,0-0.004,0l-39.827-0.272c-0.169-0.003-0.328-0.075-0.438-0.202     l-24.581-28.324l-41.358-12.215c-0.31-0.092-0.487-0.417-0.396-0.726c0.091-0.31,0.421-0.484,0.728-0.397l41.522,12.262     c0.107,0.033,0.203,0.092,0.276,0.177l24.519,28.254l39.562,0.27c0.323,0.003,0.584,0.267,0.582,0.592     C445.598,164.629,445.337,164.889,445.015,164.889z"/>
			<path style="fill:#401A49;" d="M438.116,171.537c-0.163,0-0.327-0.07-0.442-0.202c-0.212-0.245-0.186-0.614,0.059-0.826     l7.17-6.223l-9.59-4.86c-0.288-0.145-0.404-0.499-0.257-0.786c0.145-0.292,0.498-0.402,0.786-0.257l10.366,5.255     c0.174,0.087,0.292,0.257,0.317,0.449c0.024,0.195-0.051,0.387-0.198,0.514l-7.827,6.793     C438.389,171.489,438.252,171.537,438.116,171.537z"/>
		</g>
	</g>
</g>















</svg>
